<?xml version="1.0" standalone="no"?>
<!DOCTYPE svg PUBLIC "-//W3C//DTD SVG 20010904//EN"
 "http://www.w3.org/TR/2001/REC-SVG-20010904/DTD/svg10.dtd">
<svg version="1.0" xmlns="http://www.w3.org/2000/svg"
 width="512.000000pt" height="512.000000pt" viewBox="0 0 512.000000 512.000000"
 preserveAspectRatio="xMidYMid meet">
<metadata>
Created by potrace 1.11, written by Peter Selinger 2001-2013
</metadata>
<g transform="translate(0.000000,512.000000) scale(0.100000,-0.100000)"
fill="#000000" stroke="none">
<path d="M275 4074 c-19 -19 -14 -67 9 -93 9 -10 16 -22 16 -27 0 -5 8 -17 18
-25 9 -9 27 -29 39 -45 62 -84 81 -108 110 -144 17 -22 35 -55 38 -72 4 -18
14 -42 21 -53 8 -11 14 -29 14 -40 0 -11 7 -30 15 -41 8 -12 16 -33 19 -49 3
-15 12 -38 21 -51 8 -13 15 -34 15 -46 0 -13 7 -32 15 -42 8 -11 15 -29 15
-40 0 -12 9 -34 20 -51 11 -17 20 -47 20 -70 1 -22 7 -51 15 -65 8 -14 14 -43
15 -65 0 -23 9 -53 20 -70 11 -16 20 -39 20 -51 0 -11 7 -29 15 -40 8 -10 15
-37 15 -59 0 -22 7 -53 15 -69 9 -16 17 -59 20 -97 2 -37 11 -81 19 -98 10
-18 16 -56 16 -93 0 -45 6 -71 19 -92 12 -17 17 -39 14 -56 -2 -17 4 -44 17
-67 11 -21 20 -56 20 -78 0 -22 7 -49 15 -59 8 -11 15 -40 15 -65 0 -29 8 -57
20 -76 11 -17 20 -47 20 -68 0 -21 5 -48 12 -60 7 -12 15 -57 18 -99 4 -52 12
-84 23 -96 9 -10 17 -29 17 -43 0 -13 7 -33 15 -43 10 -13 15 -43 15 -84 0
-45 6 -74 18 -96 10 -17 18 -38 17 -46 0 -8 7 -26 17 -39 10 -13 18 -35 18
-50 0 -14 9 -37 19 -50 10 -14 17 -31 14 -38 -3 -8 8 -33 25 -56 16 -24 35
-62 41 -85 7 -23 16 -42 22 -42 5 0 14 -11 19 -25 5 -14 14 -25 20 -25 5 0 10
-6 10 -13 0 -8 9 -22 20 -32 11 -10 20 -29 20 -42 0 -28 46 -93 66 -93 7 0 29
-20 50 -45 27 -34 43 -45 64 -45 38 0 60 -9 60 -25 0 -16 22 -25 61 -25 19 0
37 9 51 25 12 14 30 25 39 25 23 0 99 106 99 137 0 13 10 34 21 46 29 30 49
79 49 119 0 18 9 47 20 63 11 17 20 39 20 50 0 11 7 29 15 39 8 11 15 38 15
61 0 22 9 57 20 78 11 20 20 46 20 58 0 11 7 27 15 35 10 10 15 36 15 77 0 40
7 78 21 106 12 27 18 57 15 74 -3 21 2 39 15 55 11 15 19 41 19 66 1 22 7 52
15 66 8 14 14 42 15 63 0 21 9 55 20 77 11 22 20 48 20 58 0 10 7 27 15 38 8
10 15 36 15 57 0 21 9 55 19 75 20 40 38 89 51 138 4 18 15 42 24 55 17 24 20
56 10 83 -9 23 -29 19 -48 -9 -9 -14 -25 -25 -35 -25 -31 0 -129 -137 -145
-202 -3 -16 -11 -28 -16 -28 -6 0 -10 -5 -10 -11 0 -6 -9 -22 -20 -36 -11 -14
-20 -35 -20 -47 0 -11 -7 -30 -15 -40 -8 -11 -15 -29 -15 -40 0 -12 -9 -34
-20 -51 -11 -16 -20 -39 -20 -50 0 -11 -7 -29 -15 -39 -8 -11 -15 -29 -15 -40
0 -12 -9 -36 -20 -54 -11 -18 -18 -38 -15 -43 4 -5 -3 -24 -14 -43 -12 -18
-21 -51 -21 -72 -1 -22 -7 -50 -15 -64 -8 -14 -15 -34 -15 -45 0 -11 -9 -31
-20 -45 -12 -15 -20 -41 -20 -65 0 -50 -31 -110 -56 -110 -15 0 -20 10 -25 50
-3 28 -13 64 -22 80 -9 17 -17 37 -17 46 0 9 -7 30 -15 45 -8 16 -15 55 -15
89 0 43 -6 69 -20 90 -15 22 -20 47 -20 96 0 42 -5 72 -15 85 -9 12 -14 44
-15 91 0 51 -4 76 -16 87 -12 12 -16 42 -17 133 -2 89 -6 124 -18 143 -10 15
-17 50 -18 90 -1 36 -9 75 -17 87 -8 14 -14 48 -14 89 0 50 -5 72 -17 87 -13
13 -19 41 -22 95 -2 43 -9 86 -17 97 -9 12 -14 46 -14 86 0 51 -5 72 -20 92
-16 20 -20 40 -20 95 0 49 -5 75 -15 86 -9 9 -15 33 -15 61 0 31 -7 57 -21 76
-14 20 -19 38 -15 61 3 20 -2 45 -15 69 -10 21 -19 53 -19 71 0 18 -8 49 -18
68 -11 19 -17 40 -15 46 2 7 -5 27 -16 45 -12 19 -21 49 -21 67 0 39 -15 72
-34 72 -22 0 -66 58 -66 88 0 32 -16 52 -42 52 -10 0 -21 6 -24 14 -11 29 -66
34 -365 35 -286 1 -306 3 -331 21 -33 24 -51 25 -73 4z"/>
<path d="M4043 4043 c-12 -3 -25 -13 -28 -24 -4 -12 -15 -19 -30 -19 -26 0
-45 -25 -45 -59 0 -11 -6 -26 -12 -33 -30 -32 -88 -126 -88 -144 0 -10 -9 -30
-19 -43 -10 -14 -17 -31 -14 -38 3 -7 -4 -28 -16 -46 -13 -21 -21 -52 -21 -78
0 -24 -7 -53 -15 -63 -10 -13 -15 -43 -15 -85 0 -49 -5 -74 -20 -96 -11 -16
-20 -39 -20 -51 0 -11 -7 -29 -15 -40 -9 -12 -14 -43 -15 -89 0 -53 -5 -77
-20 -100 -16 -24 -20 -47 -20 -117 0 -64 -4 -91 -15 -102 -9 -9 -15 -33 -15
-63 0 -28 -7 -58 -16 -71 -12 -17 -17 -54 -20 -138 -3 -81 -8 -122 -19 -137
-8 -12 -15 -42 -15 -67 -1 -25 -7 -56 -15 -70 -9 -16 -14 -55 -15 -110 0 -68
-4 -91 -20 -115 -14 -21 -20 -47 -20 -90 -1 -33 -7 -71 -15 -85 -8 -15 -14
-53 -15 -93 0 -53 -5 -75 -20 -94 -15 -20 -20 -41 -20 -92 0 -44 -5 -74 -15
-87 -8 -10 -15 -38 -15 -62 0 -23 -9 -58 -19 -78 -11 -20 -17 -42 -15 -48 3
-7 -2 -19 -11 -26 -20 -16 -45 3 -45 34 0 12 -7 31 -15 42 -8 10 -15 30 -15
44 0 14 -9 38 -20 55 -13 20 -18 40 -14 61 3 22 -2 43 -16 66 -11 18 -20 42
-20 53 0 11 -7 29 -15 39 -8 11 -15 30 -15 42 0 12 -9 33 -20 47 -11 14 -20
36 -20 49 0 13 -7 33 -15 44 -8 10 -15 28 -15 39 0 11 -9 34 -20 50 -11 17
-20 39 -20 51 0 11 -7 29 -15 40 -8 10 -15 31 -15 45 0 14 -9 36 -20 49 -11
13 -20 32 -20 42 0 22 -17 50 -87 142 -29 37 -53 72 -53 77 0 5 -11 9 -25 9
-27 0 -32 8 -38 50 -2 17 -14 30 -35 39 -18 8 -32 20 -32 28 0 14 -43 28 -64
20 -7 -3 -16 -17 -18 -31 -5 -23 -1 -27 26 -34 25 -7 32 -14 36 -42 5 -32 15
-42 53 -54 10 -3 17 -15 17 -32 0 -15 9 -42 21 -60 11 -19 18 -37 15 -42 -3
-5 4 -21 15 -38 11 -17 19 -47 19 -74 0 -25 7 -54 15 -64 8 -11 15 -29 15 -40
0 -12 9 -34 20 -51 11 -17 20 -47 20 -70 1 -22 7 -51 15 -65 8 -14 14 -43 15
-65 0 -23 9 -53 20 -70 15 -22 20 -47 20 -96 0 -42 5 -72 15 -85 8 -10 15 -39
15 -64 0 -27 8 -57 19 -74 14 -21 18 -40 15 -68 -4 -29 0 -45 16 -65 14 -17
20 -41 20 -72 0 -26 7 -56 15 -67 8 -10 15 -28 15 -39 0 -11 9 -33 20 -50 11
-16 20 -39 20 -51 0 -11 7 -29 15 -40 8 -10 15 -29 15 -40 0 -12 9 -33 20 -47
11 -14 20 -28 20 -32 0 -3 7 -13 15 -21 8 -9 15 -24 15 -35 0 -32 19 -59 40
-59 11 0 25 -9 32 -20 7 -11 21 -20 30 -20 10 0 28 -11 40 -25 28 -32 80 -31
111 2 14 14 34 23 54 23 18 0 37 6 42 12 6 7 26 32 45 54 20 23 36 47 36 53 0
6 7 14 15 17 8 4 15 12 15 18 0 7 14 25 30 41 19 19 33 43 37 68 3 21 14 46
23 55 9 10 20 32 24 51 3 19 17 49 30 66 13 17 29 50 35 73 7 23 16 44 21 47
6 3 10 16 10 28 0 12 9 37 20 55 11 18 20 42 20 55 0 12 7 31 15 41 8 11 15
36 15 55 0 20 9 56 21 80 12 27 18 57 15 74 -3 21 2 39 15 55 14 18 19 40 19
84 0 32 7 75 15 95 8 19 15 43 15 53 0 9 9 27 20 40 11 13 20 33 20 45 0 13 7
36 15 51 10 19 15 58 15 115 0 72 3 90 20 109 14 16 20 38 20 69 0 25 7 55 15
65 8 11 15 41 15 67 0 32 6 55 21 73 15 19 19 36 16 61 -3 22 2 47 14 70 11
19 19 49 19 65 0 17 7 47 16 68 9 20 17 65 19 98 1 37 9 71 19 85 9 13 16 43
16 69 0 26 7 55 15 66 8 10 15 31 15 45 0 14 9 36 20 49 14 16 20 38 20 69 0
25 7 55 15 65 8 11 15 31 15 44 0 13 9 35 20 49 11 14 20 35 20 47 0 12 7 31
15 42 8 10 15 31 15 45 0 24 22 60 57 97 7 7 13 24 13 36 0 24 47 101 80 131
11 10 20 23 20 29 0 6 25 39 56 73 60 68 65 92 20 104 -29 8 -670 9 -713 2z"/>
<path d="M2442 2588 c-16 -16 -15 -43 2 -57 19 -16 40 12 32 44 -7 28 -16 31
-34 13z"/>
<path d="M2365 2531 c-7 -23 3 -51 19 -51 32 0 40 43 12 62 -17 12 -24 9 -31
-11z"/>
</g>
</svg>
