<?xml version="1.0" encoding="utf-8"?>
<!DOCTYPE svg PUBLIC "-//W3C//DTD SVG 20010904//EN" "http://www.w3.org/TR/2001/REC-SVG-20010904/DTD/svg10.dtd">
<svg version="1.0" xmlns="http://www.w3.org/2000/svg" width="512px" height="512px" viewBox="0 0 512 512" preserveAspectRatio="xMidYMid meet">
 <g fill="#0dafe8">
  <path d="M161 447.5 c-0.8 -2.1 -1.6 -2.5 -5.2 -2.5 -4 -0.1 -4.5 -0.4 -7.1 -4.5 -2 -3.2 -3.5 -4.5 -5.1 -4.5 -1.5 0 -2.7 -0.9 -3.4 -2.5 -0.6 -1.4 -1.6 -2.5 -2.2 -2.5 -0.5 0 -1 -1.7 -1 -3.8 0 -2.6 -0.6 -4.1 -2 -5 -1.1 -0.7 -2 -1.8 -2 -2.6 0 -0.8 -0.7 -1.6 -1.5 -2 -0.8 -0.3 -1.5 -1.2 -1.5 -2 0 -0.9 -0.9 -2 -2 -2.6 -1.3 -0.7 -2 -2.1 -2 -4.2 0 -2.1 -1.2 -4.5 -3.6 -7.5 -2.4 -3 -3.4 -5 -3.1 -6.4 0.3 -1.3 -0.2 -2.8 -1.4 -4 -1.1 -1.1 -1.9 -3.3 -1.9 -5.2 0 -2 -0.8 -3.9 -2 -5 -1.4 -1.2 -1.9 -2.4 -1.5 -4 0.4 -1.6 0 -2.9 -1.4 -4.1 -1.8 -1.6 -2.1 -3.1 -2.1 -9.8 0 -6.1 -0.3 -8 -1.5 -8.4 -0.9 -0.4 -1.5 -1.9 -1.5 -4 0 -2.2 -0.7 -4 -2 -5.1 -1.7 -1.5 -2 -3 -2 -9.4 0 -5.6 -0.4 -8 -1.5 -8.9 -1 -0.8 -1.5 -3 -1.5 -6.5 0 -3.9 -0.5 -5.6 -2 -7 -1.6 -1.4 -2 -3.1 -2 -7.5 0 -4.2 -0.4 -5.9 -1.5 -6.4 -1.1 -0.4 -1.5 -2.1 -1.5 -6.3 0 -4.7 -0.4 -6.2 -2.1 -7.7 -1.8 -1.5 -2.1 -2.6 -1.6 -6.3 0.4 -3.6 0.1 -4.8 -1.4 -6.1 -1.6 -1.4 -1.9 -3 -1.9 -9.6 0 -6.3 -0.3 -8.1 -1.7 -9.2 -1.4 -1 -1.8 -2.7 -1.8 -8.7 0 -5.7 -0.4 -7.9 -1.7 -9.4 -1.3 -1.4 -1.8 -3.6 -1.8 -7.5 0 -4 -0.4 -5.7 -1.5 -6.2 -0.9 -0.3 -1.5 -1.8 -1.5 -3.9 0 -2.1 -0.8 -4.1 -2 -5.2 -1.5 -1.4 -2 -3.1 -2 -7 0 -3.5 -0.5 -5.7 -1.5 -6.5 -1 -0.8 -1.5 -3 -1.5 -6.5 0 -3.9 -0.5 -5.6 -2 -7 -1.2 -1.1 -2 -3.1 -2 -5.2 0 -2.1 -0.6 -3.6 -1.5 -3.9 -0.9 -0.4 -1.5 -1.9 -1.5 -4 0 -2.1 -0.8 -4.2 -2 -5.4 -1.4 -1.4 -1.8 -2.8 -1.5 -4.3 0.4 -1.6 0 -2.9 -1.4 -4.1 -1.3 -1.2 -2.1 -3.1 -2.1 -5.3 0 -2.1 -0.6 -3.6 -1.5 -3.9 -0.9 -0.4 -1.5 -1.9 -1.5 -3.5 0 -2.9 -3.2 -8.6 -5.8 -10.2 -0.6 -0.4 -1.2 -1.4 -1.2 -2 0 -0.7 -0.8 -2 -1.8 -2.9 -3.8 -3.8 -5.2 -5.5 -5.2 -6.7 0 -0.6 -0.7 -1.4 -1.5 -1.7 -0.8 -0.4 -1.5 -1.2 -1.5 -2 0 -0.7 -0.9 -1.8 -2 -2.4 -1.1 -0.6 -2 -1.7 -2 -2.6 0 -0.8 -0.7 -1.7 -1.5 -2 -2 -0.8 -3 -6.7 -1.6 -9.3 1.6 -2.9 6.9 -2.9 7.9 0 0.8 2.1 1.2 2.1 33.1 2 32.3 -0.1 36.1 0.2 36.1 3.4 0 1 1 1.5 2.9 1.5 3.1 0 4.1 1.4 4.1 6.1 0 1.6 0.5 2.9 1 2.9 0.6 0 1.5 1.1 2 2.4 0.6 1.7 1.8 2.6 3.7 2.8 2.7 0.3 2.8 0.6 3.1 6.1 0.2 4.2 0.9 6.4 2.3 7.8 1.4 1.4 1.9 2.8 1.5 4.3 -0.4 1.6 0.1 2.9 1.4 4.1 1.5 1.4 2 3.1 2 7.2 0 4 0.5 5.8 2.1 7.4 1.7 1.7 1.9 2.8 1.4 6.4 -0.6 3.7 -0.4 4.6 1.4 6.1 1.7 1.5 2.1 3 2.1 7.7 0 4.2 0.4 5.9 1.5 6.3 1.2 0.5 1.5 2.4 1.5 8.8 0 7 0.3 8.3 2 9.4 1.7 1 2 2.3 2 9.2 0 6.2 0.3 8.2 1.5 8.6 1.2 0.5 1.5 2.4 1.5 8.8 0 7 0.3 8.4 2.1 9.9 1.8 1.6 2 2.7 1.8 9.3 -0.3 6.3 0 7.7 1.4 8.5 1.4 0.8 1.7 2.5 1.7 8.5 0 6.1 0.4 8 2.1 10.4 2 2.6 2.1 3.8 1.7 14 -0.4 10 -0.3 11.2 1.4 12.1 1.5 0.8 1.8 2.3 1.8 9.3 0 6.5 0.3 8.5 1.5 9 1.2 0.4 1.5 2.3 1.5 8.4 0 6.6 0.3 8.2 2 9.7 1.7 1.5 2 3.1 2 9.7 0 6.1 0.3 8 1.5 8.4 1 0.4 1.5 1.9 1.5 4.3 0 2.4 0.7 4.2 2 5.4 1.6 1.3 2 2.9 2 7.2 0 4.6 0.3 5.5 1.8 5.5 3.3 0 6.2 -5.3 6.2 -11.4 0 -4.5 0.4 -5.7 2 -6.6 1.4 -0.7 2 -2.1 2 -4.4 0 -1.9 0.7 -3.9 1.5 -4.6 1 -0.8 1.5 -3 1.5 -6.5 0 -4 0.5 -5.6 2.1 -7.1 1.4 -1.2 1.8 -2.5 1.4 -4.1 -0.3 -1.5 0.1 -2.9 1.5 -4.3 1.2 -1.2 2 -3.3 2 -5.5 0 -2.2 0.6 -3.7 1.7 -4.4 1.1 -0.6 1.7 -2 1.5 -3.9 -0.1 -1.8 0.5 -3.5 1.8 -4.7 1.2 -1.1 2 -3.1 2 -5.2 0 -2.1 0.6 -3.6 1.5 -3.9 0.9 -0.4 1.5 -1.9 1.5 -3.9 0 -1.9 0.8 -3.9 2 -5 1.1 -1 2 -2.4 2 -3 0 -0.7 0.7 -1.5 1.5 -1.9 0.9 -0.3 1.5 -1.8 1.5 -3.6 0 -2.3 1.5 -5 5.5 -10 3 -3.8 5.5 -7.4 5.5 -7.9 0 -0.6 1.3 -1.1 3 -1.1 2.3 0 3.1 -0.5 3.6 -2.5 0.7 -2.8 3.8 -3.4 4.8 -0.9 1.2 3.2 0.6 7.4 -1.4 9.1 -1.2 1.1 -2 3 -2 4.9 0 1.7 -0.7 3.7 -1.5 4.4 -0.8 0.7 -1.5 2.8 -1.5 4.6 0 2.3 -0.6 3.8 -2 4.6 -1.6 1 -2 2.4 -2 7.1 0 4.2 -0.4 5.9 -1.5 6.3 -0.9 0.4 -1.5 1.9 -1.5 4 0 2 -0.8 4 -2 5.2 -1.5 1.4 -1.9 3 -1.9 7.2 0.1 3.9 -0.3 5.7 -1.5 6.5 -1.1 0.9 -1.6 2.8 -1.6 6.6 0 4.2 -0.5 5.8 -2 7.2 -1.7 1.4 -1.9 2.4 -1.4 5.8 0.5 3.2 0.3 4.6 -1.5 6.9 -1.7 2.4 -2.1 4.3 -2.1 10.5 0 5.8 -0.3 7.7 -1.5 8.1 -0.9 0.4 -1.5 1.9 -1.5 4 0 2.2 -0.7 4 -2 5.1 -1.6 1.4 -2 3 -2 7.6 0 4.2 -0.4 5.9 -1.5 6.3 -0.9 0.4 -1.5 1.9 -1.5 3.9 0 1.9 -0.8 3.9 -2 5 -1.5 1.3 -2 3.1 -2 6.7 0 4.8 -2.2 9.5 -5.9 12.4 -0.8 0.6 -1.2 2 -0.8 3.3 0.4 1.5 -0.6 3.5 -3.4 7.1 -2.1 2.7 -3.9 5.4 -3.9 6 0 0.5 -1.3 1 -2.8 1 -2.1 0 -3.2 0.7 -4 2.5 -1 2.1 -1.8 2.5 -5.7 2.5 -3.9 0 -4.7 -0.3 -5.5 -2.5z m8.1 -4.9 c1 -1.3 2.9 -2.7 4.1 -3 3 -0.8 8.8 -8.6 8.8 -11.8 0 -1.4 0.7 -3.1 1.5 -3.8 0.8 -0.7 1.5 -2.1 1.5 -3.1 0 -1.1 0.9 -2.8 2 -3.9 1.4 -1.4 2 -3.3 2 -6.3 0 -3.1 0.6 -4.9 2 -6.2 1.2 -1.1 2 -3.1 2 -5 0 -2 0.6 -3.5 1.5 -3.9 1.1 -0.4 1.5 -2.1 1.5 -6.6 0 -4.5 0.4 -6.2 1.5 -6.6 0.9 -0.4 1.5 -1.9 1.5 -3.9 0 -1.8 0.9 -4.4 2 -5.8 1.6 -2 2 -4 2 -9.5 0 -5 0.4 -7.3 1.5 -8.2 1 -0.8 1.5 -3.1 1.5 -6.6 0 -4.2 0.5 -5.8 2 -7.1 1.5 -1.3 2 -3 2 -6.9 0 -3.2 0.5 -5.6 1.4 -6.3 0.9 -0.8 1.5 -3.9 1.7 -9 0.3 -5.7 0.9 -8.2 2.2 -9.5 0.9 -1 1.7 -3.1 1.7 -4.7 0 -1.9 0.5 -2.9 1.5 -2.9 1.1 0 1.5 -1.1 1.5 -4.2 0 -2.4 0.7 -4.9 1.6 -5.9 1 -1.1 1.4 -3.1 1.2 -5.6 l-0.3 -3.8 -2.7 4.2 c-1.6 2.4 -2.8 5.2 -2.8 6.3 0 1.1 -0.9 2.9 -2 4 -1.1 1.1 -2 2.4 -2 2.9 0 0.5 -0.6 1.4 -1.4 2 -0.8 0.7 -1.7 3 -2.1 5.1 -0.4 2.1 -1.3 4.4 -2.1 5.1 -0.8 0.6 -1.4 2.4 -1.4 3.9 0 1.5 -0.7 3.3 -1.5 4 -0.8 0.7 -1.5 2.5 -1.5 4.1 0 1.7 -0.9 3.7 -2 4.6 -1.4 1.2 -2 3 -2 5.6 0 2.4 -0.5 4 -1.5 4.3 -0.9 0.4 -1.5 1.9 -1.5 3.9 0 1.9 -0.8 3.9 -2 5 -1.5 1.4 -2 3.1 -2 7 0 3.5 -0.5 5.7 -1.5 6.5 -0.8 0.7 -1.5 2.5 -1.5 4.1 0 1.7 -0.9 3.7 -2 4.6 -1.6 1.4 -2 3 -2 7.4 0 3.8 -0.5 6.1 -1.5 6.9 -0.8 0.7 -1.5 1.9 -1.5 2.6 0 1.8 -3.5 2.6 -9.1 2.2 l-4.4 -0.3 -0.3 -6 c-0.2 -4.7 -0.7 -6.3 -2.2 -7.3 -1.9 -1.2 -2 -0.9 -2 7.3 l0 8.5 2.9 0 c3 0 4.1 1.4 4.1 5.5 0 1.3 0.3 2.5 0.8 2.7 0.4 0.2 1.7 1.7 3 3.5 2.6 3.8 2.9 8.9 0.5 11.6 -1.7 1.8 -1.7 1.9 0 2.8 2.3 1.3 2.5 10.9 0.2 10.9 -1.1 0 -1.5 1.1 -1.5 3.7 0 4.1 -4 9.3 -7.2 9.3 -1.1 0 -1.8 0.7 -1.8 2 0 2.7 1.8 2.5 4.1 -0.4z m-51.1 -78.1 c-1.6 -1.7 -2.1 -3.3 -1.8 -6.1 0.3 -3.6 0.6 -3.9 3.6 -4.2 3.2 -0.3 3.2 -0.4 3.2 -5.6 0 -3.5 -0.5 -5.8 -1.5 -6.6 -1.2 -1 -1.5 -3.8 -1.5 -13.5 0 -10.9 -0.2 -12.4 -2 -14 -1.2 -1.1 -2 -3.1 -2 -5 0 -1.8 0.9 -4.2 2 -5.5 1.9 -2.2 2 -3.7 2 -51.5 0 -42.6 -0.2 -49.4 -1.5 -50.5 -1.1 -0.9 -1.5 -3.2 -1.5 -8.1 l0 -6.9 5.9 0 c4.4 0 6 -0.4 6.5 -1.6 1 -2.6 0.7 -5.1 -0.9 -6.4 -1 -0.8 -1.5 -3.1 -1.5 -6.6 0 -4.3 -0.4 -5.6 -2.1 -6.8 -1.9 -1.3 -2.1 -2.1 -1.5 -6.5 0.6 -4.4 0.4 -5.2 -1.4 -6.3 -1.4 -0.9 -2 -2.3 -2 -4.9 0 -2 -0.7 -4.2 -1.5 -4.9 -1 -0.8 -1.5 -3 -1.5 -6.2 0 -4.4 -0.3 -5 -2.9 -6.1 -3.8 -1.6 -8.1 -6.9 -8.1 -10.1 0 -1.9 -0.7 -2.9 -2.4 -3.6 -1.4 -0.5 -3 -1.8 -3.6 -3 -1 -2 -1.8 -2 -33.5 -2 -32.6 0 -35.1 0.3 -31.1 3.4 0.8 0.6 5.5 6.4 10.5 12.9 6.8 8.8 9.1 12.5 9.1 14.8 0 1.7 0.6 3.2 1.5 3.5 0.9 0.4 1.5 1.9 1.5 3.9 0 1.9 0.8 3.9 2 5 1.2 1.1 2 3.1 2 5 0 1.8 0.7 3.8 1.5 4.5 0.8 0.7 1.5 2.5 1.5 4.1 0 1.6 0.9 3.8 2 4.9 1.1 1.1 2 3.3 2 4.9 0 1.6 0.7 3.4 1.5 4.1 1 0.8 1.5 3 1.5 6.5 0 3.2 0.5 5.7 1.4 6.4 0.7 0.6 1.6 3.4 1.9 6.2 0.4 2.9 1.3 5.9 2.2 6.9 0.8 0.9 1.5 3.3 1.5 5.2 0 2 0.7 4.1 1.5 4.8 1 0.8 1.5 3 1.5 6.5 0 3.9 0.5 5.6 2 7 1.7 1.5 2 3.1 2 9.5 0 6 0.3 7.9 1.5 8.4 1.2 0.4 1.5 2.3 1.5 8.4 0 6.6 0.3 8.2 2 9.7 1.6 1.4 2 3.1 2 7.5 0 3.9 0.5 6.2 1.5 7 1 0.8 1.5 3 1.5 6.4 0 3.9 0.5 5.6 2 6.9 1.5 1.3 2 2.9 2 7.1 0 3.5 0.5 5.8 1.5 6.6 1 0.8 1.5 3 1.5 6.2 0 3.5 0.6 5.8 2 7.5 1.5 1.9 2 4.1 2 8.7 0 3.9 0.5 6.9 1.5 8.2 0.8 1 1.5 3.3 1.5 5.1 0 1.9 0.7 3.6 1.6 4.1 1.2 0.7 1.8 3.1 2.3 9.5 0.3 4.8 1.2 9.2 1.9 9.9 0.6 0.6 1.2 2.6 1.2 4.3 0 1.7 0.6 3.7 1.3 4.4 1 1 1.3 0 1.5 -5 0.3 -5.2 0 -6.5 -1.8 -8.4z m39.7 -30.2 c-0.2 -2.1 -0.4 -0.6 -0.4 3.2 0 3.9 0.2 5.5 0.4 3.8 0.2 -1.8 0.2 -5 0 -7z m-4 -20.5 c-0.2 -1.3 -0.4 -0.5 -0.4 1.7 -0.1 2.2 0.1 3.2 0.4 2.3 0.2 -1 0.2 -2.8 0 -4z m-3 -25.1 c-0.2 -2.3 -0.3 -0.1 -0.3 4.8 0 5 0.1 6.8 0.3 4.2 0.2 -2.6 0.2 -6.7 0 -9z m76.3 -9.3 c0 -1.8 -0.4 -1.8 -2.4 0.5 -1.7 1.9 -1.7 1.9 0.3 1.4 1.2 -0.3 2.1 -1.2 2.1 -1.9z m-79 -10.8 c0 -0.8 -0.4 -1.8 -1 -2.1 -0.5 -0.3 -1 0.3 -1 1.4 0 1.2 0.5 2.1 1 2.1 0.6 0 1 -0.6 1 -1.4z m-7.3 -35.8 c-0.2 -1.3 -0.4 -0.3 -0.4 2.2 0 2.5 0.2 3.5 0.4 2.3 0.2 -1.3 0.2 -3.3 0 -4.5z m-7 -36 c-0.2 -1.3 -0.4 -0.3 -0.4 2.2 0 2.5 0.2 3.5 0.4 2.3 0.2 -1.3 0.2 -3.3 0 -4.5z"/>
  <path d="M116.7 182.3 c-0.4 -0.3 -0.7 -3.2 -0.7 -6.3 0 -6.7 1.3 -8.3 6.2 -7.8 3.2 0.3 3.3 0.5 3.6 4.9 0.5 7 -1 9.9 -5.1 9.9 -1.9 0 -3.7 -0.3 -4 -0.7z"/>
  <path d="M336.2 447.5 c-0.8 -1.7 -1.9 -2.5 -3.8 -2.5 -1.7 0 -2.8 -0.6 -3.1 -2 -0.3 -1.2 -1.4 -2 -2.7 -2 -3.1 0 -4.6 -1.9 -4.6 -5.7 0 -2.1 -0.6 -3.6 -1.5 -3.9 -0.8 -0.4 -1.5 -1.2 -1.5 -1.9 0 -0.6 -0.9 -2 -2 -3 -1.2 -1.1 -2 -3.1 -2 -5 0 -2 -0.6 -3.5 -1.5 -3.9 -0.9 -0.3 -1.5 -1.8 -1.5 -3.9 0 -2.1 -0.8 -4.1 -2 -5.2 -1.2 -1.1 -2 -3.1 -2 -5 0 -2 -0.6 -3.5 -1.5 -3.9 -1.1 -0.4 -1.5 -2.1 -1.5 -6.3 0 -4.7 -0.4 -6.2 -2.1 -7.7 -1.8 -1.5 -2.1 -2.5 -1.6 -6.6 0.5 -3.9 0.2 -5.1 -1.4 -6.6 -1.4 -1.3 -1.9 -3 -1.9 -7.2 0 -3.9 -0.5 -5.8 -1.6 -6.7 -1.3 -0.9 -1.6 -2.8 -1.5 -8.7 0.1 -6.3 -0.2 -7.7 -1.9 -9.3 -1.5 -1.4 -2 -3.1 -2 -7 0 -3.5 -0.5 -5.7 -1.5 -6.5 -1 -0.8 -1.5 -3.1 -1.5 -6.9 0 -4.5 -0.4 -5.9 -2 -6.9 -1.4 -0.8 -2 -2.3 -2 -4.7 0 -2.2 -0.6 -3.8 -1.5 -4.1 -1.1 -0.5 -1.5 -2.2 -1.5 -6.4 0 -4.5 -0.4 -6.1 -2.1 -7.6 -1.4 -1.2 -1.8 -2.5 -1.4 -4.1 0.4 -1.6 -0.1 -2.8 -1.5 -4 -1.3 -1.2 -2 -3 -2 -5.5 0 -3.5 -0.2 -3.8 -2.9 -3.8 -3.1 0 -4.1 -1.4 -4.1 -6 0 -2.5 -0.4 -2.9 -3.2 -3.2 -2.9 -0.3 -3.3 -0.6 -3.3 -3.3 0 -2.7 0.3 -3 3.8 -3.3 3.2 -0.3 3.8 0 4.6 2.2 0.7 1.7 1.9 2.6 3.8 2.8 2.5 0.3 2.8 0.7 3.1 4.6 0.3 3.9 0.5 4.2 3.3 4.2 1.6 0 2.9 0.5 2.9 1 0 0.6 3.2 5.1 7 9.9 5.2 6.6 7 9.7 7 12 0 2 0.7 3.4 2 4.1 1.5 0.8 2 2.1 2 4.9 0 2.5 0.5 4.1 1.5 4.5 0.9 0.3 1.5 1.8 1.5 3.9 0 2.1 0.8 4.1 2 5.2 1.2 1.1 2 3.1 2 5 0 2 0.6 3.5 1.5 3.9 1 0.3 1.5 1.9 1.5 4.3 0 2.7 0.6 4.2 2 5.1 1.4 0.8 2 2.3 2 4.7 0 2.2 0.6 3.8 1.5 4.1 0.9 0.4 1.5 1.9 1.5 4 0 2.1 0.8 4.2 2.1 5.5 1.8 1.8 2 2.9 1.5 6.5 -0.5 3.7 -0.2 4.7 1.4 6.1 1.3 1.2 2 3 2 5.4 0 2.3 0.5 3.9 1.4 4.2 0.8 0.3 1.6 2.2 1.8 4.4 0.2 2.8 0.8 3.9 2.2 4.1 2.2 0.5 3.8 -1.6 3.1 -3.9 -0.3 -0.9 0.4 -2.7 1.5 -4.2 1.4 -1.8 2 -4 2 -8 0 -4 0.4 -5.6 1.5 -6.1 1.2 -0.4 1.5 -2.4 1.5 -8.6 0 -6.9 0.3 -8.2 2 -9.2 1.7 -1.1 2 -2.4 2 -9.6 0 -6.4 0.3 -8.4 1.5 -8.8 1.2 -0.5 1.5 -2.4 1.5 -8.4 0 -6.4 0.3 -8 2 -9.5 1.8 -1.6 2 -3.1 2 -12 0 -8.2 0.3 -10.4 1.5 -10.9 1.1 -0.4 1.5 -2.1 1.5 -6.5 0 -4.6 0.4 -6.2 1.7 -6.9 1.4 -0.9 1.7 -2.8 1.7 -13.7 0.1 -11 0.3 -12.8 1.9 -13.6 1.3 -0.8 1.7 -2.3 1.7 -6.9 0 -4.5 0.4 -6.1 1.7 -6.8 1.4 -0.8 1.6 -2.4 1.4 -10.5 -0.2 -8.6 0 -9.8 1.8 -11.4 1.8 -1.5 2.1 -2.9 2.1 -9.9 0 -6.4 0.3 -8.3 1.5 -8.8 0.9 -0.3 1.5 -1.8 1.5 -3.9 0 -2.1 0.8 -4.1 2 -5.2 1.7 -1.5 2 -3.1 2 -9.7 0 -6.1 0.3 -8 1.5 -8.4 1.1 -0.5 1.5 -2.2 1.5 -6.4 0 -4.5 0.4 -6.1 2.1 -7.6 1.4 -1.2 1.8 -2.5 1.4 -4.1 -0.4 -1.6 0.1 -2.8 1.5 -4 1.1 -1 2 -3 2 -4.6 0 -1.8 1.3 -4.5 3.5 -7.1 1.9 -2.4 3.5 -4.8 3.5 -5.3 0 -0.6 0.7 -1.3 1.5 -1.7 0.9 -0.3 1.5 -1.8 1.5 -3.9 0 -3.9 1.5 -5.7 4.7 -5.7 1.3 0 2.3 -0.4 2.3 -0.9 0 -0.5 0.7 -1.6 1.5 -2.5 1.3 -1.3 6.7 -1.5 37.6 -1.6 25.7 0 36.5 0.3 37.5 1.1 1.9 1.6 1.7 4.5 -0.4 6.1 -1 0.7 -2.9 2.9 -4.3 4.8 -1.3 1.9 -3 3.9 -3.6 4.3 -0.7 0.4 -1.3 1.4 -1.3 2 0 0.7 -0.8 2 -1.7 2.8 -1 0.9 -2.5 2.6 -3.3 3.9 -0.8 1.3 -2.3 3.2 -3.2 4.2 -1 1 -1.8 3.3 -1.8 5.3 0 2.4 -0.6 3.7 -2 4.5 -1.1 0.6 -2 1.7 -2 2.4 0 0.8 -0.7 1.6 -1.5 2 -1 0.3 -1.5 1.9 -1.5 4.5 0 2.5 -0.5 4.1 -1.5 4.5 -0.9 0.3 -1.5 1.9 -1.5 4.1 0 2.4 -0.6 3.9 -2 4.7 -1.4 0.9 -2 2.4 -2 5.1 0 2.4 -0.5 4 -1.5 4.3 -1.1 0.5 -1.5 2.2 -1.5 6.5 0 4.8 -0.3 6 -2 6.9 -1.5 0.8 -2 2.1 -2 4.9 0 2.5 -0.5 4.1 -1.5 4.5 -1.1 0.4 -1.5 2.1 -1.5 6.5 0 4.7 -0.4 6.2 -1.7 7 -1.5 0.8 -1.8 2.4 -1.8 8.4 0 5.7 -0.4 7.9 -1.7 9.4 -1.2 1.3 -1.8 3.6 -1.8 7 0 3.7 -0.5 5.5 -1.9 6.7 -1.6 1.5 -1.9 2.7 -1.4 6.6 0.5 4.1 0.2 5.1 -1.6 6.6 -1.7 1.5 -2.1 3 -2.1 7.7 0 4.2 -0.4 5.9 -1.5 6.3 -1.1 0.5 -1.5 2.2 -1.5 6.5 0 4.8 -0.4 6.1 -2 7.1 -1.8 1.1 -2 2.4 -2 11.6 0 8.2 -0.3 10.4 -1.5 10.8 -1 0.4 -1.5 2 -1.5 4.5 0 2.8 -0.5 4.1 -2 4.9 -1.4 0.7 -2 2.1 -2 4.4 0 1.9 -0.7 3.9 -1.5 4.6 -1.1 0.9 -1.5 3.3 -1.5 8.9 0 6.4 -0.3 7.9 -2 9.4 -1.7 1.4 -1.9 2.4 -1.4 5.8 0.5 3.2 0.3 4.6 -1.5 6.9 -1.5 2.1 -2.1 4.4 -2.1 7.8 0 3.2 -0.5 5.4 -1.5 6.2 -0.8 0.7 -1.5 2.5 -1.5 4.1 0 1.6 -0.9 3.8 -2 4.9 -1.2 1.2 -2 3.3 -2 5.4 0 2.1 -0.6 3.6 -1.5 4 -0.9 0.3 -1.5 1.8 -1.5 3.7 0 2 -1.2 4.5 -3.5 7.3 -2.3 2.9 -3.5 5.3 -3.5 7.4 0 2.1 -0.7 3.5 -2 4.2 -1.4 0.8 -2 2.1 -2 4.5 0 2.1 -0.8 4.4 -2 5.8 -1.2 1.2 -2.7 2.9 -3.5 3.8 -0.8 0.9 -1.5 2 -1.5 2.6 0 0.6 -0.7 1.3 -1.5 1.7 -0.8 0.3 -1.5 1.1 -1.5 1.8 0 0.8 -0.8 2.1 -1.7 3 -3.3 3.2 -5 5.3 -5.6 7.1 -0.5 1.2 -1.7 1.7 -4.9 1.7 -3.5 0 -4.5 0.4 -5.3 2.3 -0.8 1.7 -1.9 2.3 -5.6 2.5 -4 0.3 -4.7 0 -5.7 -2.3z m7.4 -5 c0.4 -1.7 1.3 -2.5 2.8 -2.5 1.2 0 3.1 -0.7 4.2 -1.5 1.7 -1.3 1.2 -1.4 -5.8 -1.5 -6.6 0 -7.7 -0.3 -8.3 -1.9 -0.3 -1.1 -1.2 -2.2 -2 -2.5 -1 -0.4 -1.5 -2 -1.5 -5 0 -3.5 -0.4 -4.5 -2 -4.9 -2.9 -0.7 -2.8 -7.9 0.1 -9.8 1.9 -1.3 2.1 -2.4 2 -10.7 0 -5.2 0.4 -10.2 0.9 -11.2 0.9 -1.7 0.5 -1.9 -4.7 -2.2 l-5.8 -0.3 -0.3 -4.2 c-0.2 -2.3 -1 -4.7 -1.8 -5.3 -0.7 -0.7 -1.4 -2.7 -1.4 -4.4 0 -1.9 -0.8 -3.8 -2 -4.9 -1.5 -1.3 -2 -2.9 -2 -7.1 0 -3.5 -0.5 -5.8 -1.5 -6.6 -0.8 -0.7 -1.5 -2.5 -1.5 -4 0 -1.5 -0.7 -3.3 -1.5 -4 -0.8 -0.7 -1.5 -2.5 -1.5 -4 0 -1.5 -0.9 -3.9 -2 -5.3 -1.1 -1.4 -2 -3.9 -2 -5.6 0 -1.9 -0.6 -3.4 -1.5 -3.7 -0.9 -0.4 -1.5 -1.9 -1.5 -3.9 0 -1.9 -0.8 -3.9 -2 -5 -1.2 -1.1 -2 -3.1 -2 -5 0 -1.9 -0.8 -3.9 -2 -5 -1.1 -1 -2 -3 -2 -4.4 0 -1.4 -0.7 -3.5 -1.5 -4.5 -0.8 -1.1 -1.5 -3.1 -1.5 -4.5 0 -1.6 -1.3 -3.9 -3.5 -6 -1.9 -1.9 -3.5 -3.9 -3.5 -4.6 0 -0.7 -0.7 -1.6 -1.5 -1.9 -1.4 -0.5 -1.4 -0.4 0 1.6 0.8 1.3 1.5 4.3 1.5 7.1 0 3.4 0.6 5.4 2 6.9 1.1 1.2 2 3.6 2 5.4 0 1.7 0.7 3.7 1.5 4.4 0.9 0.8 1.5 3 1.5 5.9 0.1 2.5 0.9 6.4 2 8.6 1.1 2.2 1.9 5.7 2 7.8 0 2.1 0.7 4.5 1.5 5.3 1.1 1.1 1.5 3.7 1.5 8.8 0 5.3 0.4 7.7 1.5 8.6 1 0.8 1.5 3 1.5 6.5 0 3.9 0.5 5.6 2 7 1.6 1.4 2 3.1 2 7.5 0 4.2 0.4 5.9 1.5 6.4 1.1 0.4 1.5 2.1 1.5 6.6 0 4.5 0.4 6.2 1.5 6.6 0.9 0.4 1.5 1.9 1.5 3.9 0 1.9 0.8 3.9 2 5 1.2 1.1 2 3.1 2 5.2 0 2.1 0.6 3.6 1.5 3.9 0.8 0.4 1.5 1.8 1.5 3.4 0 1.5 0.9 3.9 2 5.3 1.1 1.4 2 3 2 3.5 0 0.5 0.7 1.2 1.5 1.6 0.8 0.3 1.5 1.6 1.5 3 0 3.7 1 5.6 3.1 5.6 1 0 2.4 0.9 3.1 2 0.7 1.1 2.3 2 3.5 2 1.3 0 3 1.1 3.9 2.5 0.9 1.4 2 2.5 2.5 2.5 0.5 0 1.1 -1.1 1.5 -2.5z m30.6 -37.4 c0.2 -2.2 0 -3.7 -0.4 -3.5 -0.8 0.5 -1.1 7.4 -0.4 7.4 0.2 0 0.6 -1.8 0.8 -3.9z m5.7 -14.5 c0.1 -0.5 -0.6 -0.3 -1.4 0.4 -0.8 0.7 -1.5 2.7 -1.4 4.4 l0.1 3.1 1.3 -3.5 c0.7 -1.9 1.4 -3.9 1.4 -4.4z m5.1 -7.2 c0 -1.7 -0.5 -1.7 -3.1 -0.4 -2.7 1.5 -2.4 2.8 0.6 2.2 1.4 -0.2 2.5 -1.1 2.5 -1.8z m3 -12.1 c0 -2.6 0.5 -3.6 2 -4 1.7 -0.5 2 -1.4 2 -6.8 0 -4.7 0.4 -6.4 1.5 -6.9 1.1 -0.4 1.5 -2.1 1.5 -6.4 0 -4.1 0.5 -6.4 1.5 -7.2 1.1 -0.9 1.5 -3.3 1.5 -9.1 0 -6.8 0.3 -8 2 -8.9 1.3 -0.7 2 -2.1 2 -3.9 0 -1.6 0.6 -3.4 1.4 -4 0.8 -0.6 1.7 -3.6 2.1 -6.6 0.4 -3.8 1.1 -5.5 2.1 -5.5 1.1 0 1.4 -1.9 1.4 -8.9 0 -6.6 0.4 -9.2 1.5 -10.1 1 -0.8 1.5 -3 1.5 -6.5 0 -3.7 0.6 -6 2 -7.8 1.3 -1.6 2 -4.1 2 -6.9 0 -2.3 0.7 -5.2 1.5 -6.2 0.9 -1.2 1.5 -4.2 1.5 -7.1 0 -3.9 0.5 -5.6 2 -7 1.5 -1.4 2 -3.1 2 -7 0 -2.9 0.6 -5.9 1.5 -7.1 0.9 -1.2 1.4 -4.3 1.5 -8.5 0 -4.1 0.5 -7.2 1.5 -8.5 0.8 -1 1.7 -4.5 2.1 -7.6 0.4 -3.2 1.3 -6.3 2 -6.9 0.8 -0.6 1.4 -2.4 1.4 -3.9 0 -1.5 0.9 -3.9 2 -5.3 1.4 -1.8 2 -4 2 -7.6 0 -3.7 0.4 -5.3 1.5 -5.7 0.9 -0.4 1.5 -1.9 1.5 -3.6 0 -1.6 0.9 -4.1 2 -5.5 1.1 -1.4 2 -3.8 2 -5.3 0 -1.5 0.7 -3.3 1.5 -4 0.8 -0.7 1.5 -2.6 1.5 -4.3 0 -2.8 0.9 -4.2 5.3 -8.5 0.9 -0.9 1.7 -2.9 1.7 -4.5 0 -2.1 2 -5.4 7 -11.8 3.9 -4.8 7 -9.2 7 -9.5 0 -0.4 0.7 -1.6 1.7 -2.6 1.6 -1.7 0.5 -1.8 -30.9 -1.8 l-32.6 0 -1.6 2.5 c-0.9 1.4 -2.5 2.5 -3.6 2.5 -1.6 0 -2 0.7 -2 3 0 1.8 -0.8 3.7 -2 4.7 -1.1 1 -2 2.1 -2 2.6 0 0.4 -1.6 2.9 -3.5 5.4 -1.9 2.5 -3.5 5.6 -3.5 6.8 0 1.2 -0.7 2.8 -1.5 3.5 -2.5 2 -1.7 2.9 2.8 3.2 l4.2 0.3 0.3 6.2 c0.2 5.2 0 6.3 -1.7 7.5 -2 1.4 -2.1 2.5 -2.1 21.1 -0.1 16.5 -0.4 19.7 -1.6 19.7 -1.2 0 -1.4 3.6 -1.5 22.3 -0.1 40 0.1 47.1 1.7 48.8 0.9 1 1.4 3.7 1.4 7.2 0 4.7 0.4 5.8 2.1 6.7 1.6 0.9 2 1.9 1.7 5.3 -0.3 3.9 -0.5 4.2 -3.5 4.5 -3.5 0.3 -4.6 2.8 -1.8 3.8 2.2 0.9 2.1 13.6 -0.1 15.5 -1.4 1.1 -1.4 1.3 0.1 2.2 1.2 0.6 1.6 2.1 1.5 5.5 -0.4 11 -0.1 12.9 2 13.5 1.7 0.4 2 1.4 2 7.1 0 5.5 -0.3 6.7 -2 7.6 -1.3 0.7 -2 2.1 -2 3.8 0 1.5 -0.6 3.6 -1.4 4.7 -1.5 2.3 -3 16.9 -1.5 16 0.5 -0.4 0.9 -2.2 0.9 -4.2z m-45 -3.7 c-0.1 -2.9 -0.1 -3 -1.5 -1.2 -0.8 1.1 -1.5 3.1 -1.5 4.4 0 2.1 0.2 2.2 1.5 1.2 0.8 -0.7 1.5 -2.7 1.5 -4.4z"/>
  <path d="M398 273 l0 -5.1 4.3 0.3 4.2 0.3 0 4.5 0 4.5 -4.2 0.3 -4.3 0.3 0 -5.1z"/>
  <path d="M236.4 262.6 c-0.9 -2.4 0 -5.1 1.8 -5.4 2 -0.4 4 3 3.2 5.2 -0.8 2 -4.3 2.1 -5 0.2z"/>
  <path d="M244.2 258.8 c-1.7 -1.7 -1.5 -5.5 0.5 -6.2 2.3 -0.9 3.5 0.6 3.1 4 -0.3 3.1 -1.8 4 -3.6 2.2z"/>
 </g>
 <g fill="#0a9cd8">
  <path d="M340.3 448.2 c-1.2 -0.2 -2.9 -1.4 -3.7 -2.8 -1.6 -2.3 -1.5 -2.4 0.5 -2.4 3.1 0 1.8 -2.1 -2.1 -3.4 -2 -0.6 -4.4 -2.5 -5.7 -4.5 l-2.3 -3.4 0 3.7 c0 2.4 -0.5 3.6 -1.4 3.6 -1.6 0 -2.6 -2.1 -2.6 -5.6 0 -1.4 -0.7 -2.7 -1.5 -3 -0.8 -0.4 -1.5 -1.1 -1.5 -1.6 0 -0.5 -0.9 -2.1 -2 -3.5 -1.1 -1.4 -2 -3.8 -2 -5.3 0 -1.6 -0.7 -3 -1.5 -3.4 -0.8 -0.3 -1.5 -1.5 -1.5 -2.6 0 -3.1 4.4 -2.3 4.8 0.8 0.2 1.2 0.7 2.2 1.2 2.2 0.5 0 1.1 1.2 1.3 2.8 0.3 1.9 0.4 1.4 0.6 -1.5 0.1 -3.8 0.4 -4.3 2.5 -4.3 2.4 0 2.4 -0.2 1.9 -5.2 -0.5 -4.9 -0.2 -5.8 3.1 -10.7 2 -2.9 3.6 -5.6 3.6 -6.1 0 -0.4 -1.3 -1 -3 -1.3 -2.3 -0.5 -3 -1.2 -3 -3 0 -2.1 0.4 -2.3 3.1 -1.9 3.7 0.5 4.9 -0.8 4.9 -5.6 0 -2 0.6 -3.5 1.5 -3.8 0.8 -0.4 1.8 -2.4 2.1 -4.5 0.4 -2.1 1 -3.9 1.4 -3.9 1 0 2.5 -13.2 2.1 -18.6 -0.2 -3 0.2 -4.3 1.3 -4.7 1.3 -0.5 1.6 -2.3 1.6 -8.5 0 -6.3 0.4 -8.2 1.8 -9.5 1.4 -1.3 1.9 -3.4 2.1 -9.4 0.1 -5.1 0.7 -8.3 1.7 -9.4 1 -1.1 1.4 -4.1 1.4 -10.8 0 -7.5 0.4 -9.7 1.9 -11.6 1.3 -1.7 1.7 -3.6 1.4 -6.5 -0.3 -2.9 0.2 -5 1.6 -7.4 1.8 -2.8 2.1 -5 2.1 -14.3 0 -8.6 0.3 -11.3 1.5 -12.3 1 -0.8 1.5 -3.1 1.5 -6.6 0 -4.1 0.5 -5.9 2 -7.4 1.7 -1.7 2 -3.3 2 -11.2 0 -7.3 0.4 -9.5 1.8 -11.1 1.3 -1.5 1.6 -3.4 1.4 -9 -0.2 -5.4 0.1 -7.4 1.4 -8.8 0.9 -1 1.8 -3.3 2 -5 0.2 -1.8 1.1 -4 1.9 -4.9 1.1 -1.2 1.5 -3.9 1.5 -9.2 0 -6.2 0.3 -7.8 2 -9.3 1.5 -1.4 2 -3.1 2 -7 0 -3.5 0.5 -5.7 1.5 -6.5 0.8 -0.7 1.5 -2.7 1.5 -4.5 0 -1.8 0.7 -3.8 1.5 -4.5 0.8 -0.7 1.5 -2.3 1.5 -3.5 0 -1.2 1.6 -4.3 3.5 -6.8 1.9 -2.5 3.5 -5 3.5 -5.4 0 -0.5 0.9 -1.6 2 -2.6 1.2 -1 2 -2.9 2 -4.7 0 -2.4 0.4 -3 2.1 -3 1.8 0 2 0.4 1.4 4.8 l-0.6 4.7 3.6 -4.2 c3.1 -3.7 4.2 -4.3 7.5 -4.3 3 0 4 0.4 4.5 2.1 1 3 -0.5 14.2 -2.1 16 -1 1.1 -1.5 4.5 -1.5 11.5 0 7.5 -0.4 10.3 -1.6 11.6 -1.4 1.5 -1.4 1.9 0.1 3.3 1.3 1.3 1.6 4.2 1.8 14.8 0.1 8.2 0.3 10.4 0.5 5.9 l0.4 -7.3 4.2 0.3 4.2 0.3 0.3 6.8 c0.2 5.5 0 6.7 -1.3 6.7 -1.1 0 -1.5 1.1 -1.5 4.5 0 3.3 0.4 4.5 1.5 4.5 1.1 0 1.5 1.2 1.5 4.5 0 3.1 -0.5 4.7 -1.5 5.1 -0.8 0.4 -1.5 1.3 -1.5 2.1 0 0.8 -0.9 1.7 -2 2 -1.9 0.5 -2 1.4 -2 15.8 0 12.3 -0.3 15.5 -1.5 16.5 -1 0.8 -1.5 3 -1.5 6.5 0 3.6 -0.5 5.7 -1.6 6.6 -1.7 1.4 -1.7 5 0.2 24.2 l0.7 6.7 -3.2 1.1 -3.1 1.1 0 8 c0 6.5 -0.3 8.3 -1.7 9.4 -1.5 1 -1.6 1.5 -0.5 2.5 1.8 1.9 1.5 8.9 -0.5 11.1 -1.5 1.7 -1.5 1.8 1 1.8 3.4 0 3.4 1.6 0.2 4.6 -2.1 2 -2.3 2.7 -1.5 5 1.3 3.3 0.3 10.9 -1.6 12.5 -0.8 0.6 -1.4 1.8 -1.4 2.5 0 0.8 -0.4 1.4 -0.8 1.4 -0.4 0 -1.3 1.2 -2 2.8 -0.7 1.5 -1.9 3.8 -2.7 5.2 -0.8 1.4 -1.6 4.4 -1.8 6.5 -0.2 2.2 -0.2 3 0 1.8 0.3 -1.5 1.2 -2.3 2.4 -2.3 1.6 0 1.9 0.7 1.9 5 0 4 -0.3 4.8 -1.5 4.4 -0.9 -0.4 -1.8 0.1 -2.2 1.2 -0.6 1.7 -0.8 1.6 -1.4 -0.6 -0.6 -2.3 -0.7 -2.3 -0.8 0.8 -0.1 1.7 0.4 3.2 0.9 3.2 1.8 0 1 2.5 -1.7 5.4 -1.7 1.9 -2.3 3.1 -1.5 3.4 2.1 0.7 1.4 4 -1 4.4 -1.9 0.2 -2.2 0.8 -2 3.6 0.2 1.7 -0.1 3.2 -0.6 3.2 -0.6 0 -1.3 1.4 -1.7 3 -0.4 1.7 -1.3 3 -2.1 3 -0.8 0 -1.4 0.9 -1.4 1.9 0 1.1 -0.4 2.2 -1 2.6 -0.6 0.3 -0.6 1.5 0 2.9 1.1 2.9 0.5 3.6 -2.9 3.6 -1.6 0 -2.1 0.3 -1.4 0.8 0.7 0.4 1.3 2.2 1.5 4 0.2 3.5 -3.3 8.2 -6.3 8.2 -2.1 0 -3.7 2 -1.7 2.1 0.7 0 0.3 0.4 -0.9 0.9 -1.5 0.6 -2 1.5 -1.6 2.9 0.3 1.4 0 2.3 -1.1 2.7 -0.9 0.3 -1.6 1.2 -1.6 2 0 0.8 -0.8 1.4 -1.9 1.4 -2.3 0 -5.1 3 -3 3.1 0.8 0 0.2 0.5 -1.3 1.1 -1.6 0.5 -2.8 1.4 -2.8 2 0 0.6 -1 0.8 -2.4 0.4 -1.9 -0.5 -2.5 -0.1 -3 1.8 -0.6 2.5 -2.6 3.4 -6.3 2.8z m15.7 -18.1 c0.5 -3.3 1.5 -4.3 5.3 -5.5 1.1 -0.3 1.7 -1.6 1.7 -3.3 0 -3.5 0.8 -4.5 4.3 -6 2.6 -1.2 2.7 -1.5 2.7 -8.6 0 -6.1 0.3 -7.7 2 -9.2 1.2 -1.1 2 -3.1 2 -5 0 -1.8 0.7 -3.8 1.5 -4.5 0.8 -0.7 1.5 -2.5 1.5 -4.1 0 -2.2 0.7 -3.2 3 -4.4 3.3 -1.7 3.6 -2.6 1.8 -5.5 -1 -1.5 -0.9 -2.2 0.5 -3.8 1.1 -1.2 1.7 -3.6 1.7 -6.8 0 -2.7 0.7 -5.8 1.5 -6.8 0.8 -1.1 1.5 -3.2 1.5 -4.8 0 -1.7 0.7 -3.1 2.1 -3.8 2.6 -1.5 2.4 -8.3 -0.3 -8.8 -1.5 -0.3 -1.8 0.4 -1.8 4.3 0 3.3 -0.4 4.5 -1.2 4.3 -2 -0.7 -2.3 -7.7 -0.4 -8.4 2.1 -0.8 2.1 -7.2 0 -9.5 -1.6 -1.8 -1.5 -2.8 0.8 -6.2 1.1 -1.5 1 -2 -0.4 -3.1 -2.2 -1.6 -2.4 -6.9 -0.3 -8.6 2 -1.7 2 -8.6 0 -9.4 -1.3 -0.4 -1.5 -1.9 -1.3 -6.8 0.2 -3.8 0.8 -6.3 1.6 -6.6 0.6 -0.2 1.2 0.3 1.2 1.2 0 2.1 1.9 3.1 3.3 1.6 0.9 -0.9 0.7 -1.5 -1 -2.7 -1.9 -1.3 -2.3 -2.4 -2.3 -7.3 0 -3.9 -0.5 -6.2 -1.5 -7 -1.2 -1 -1.5 -3.8 -1.5 -13 0 -9.2 -0.3 -12 -1.5 -13 -0.8 -0.7 -1.5 -2 -1.5 -3 0 -1 0.7 -2.3 1.5 -3 2.3 -1.9 2.2 -38.5 -0.1 -39.8 -2.5 -1.4 -1.3 -4.7 1.9 -5 3 -0.4 3.5 -2.3 1.2 -4.2 -0.8 -0.7 -1.5 -1.8 -1.5 -2.5 0 -0.7 0.7 -1.8 1.5 -2.5 1.2 -1 1.5 -4.1 1.5 -15.9 0 -13.7 0.1 -14.7 2.1 -15.9 1.5 -0.9 1.9 -2.1 1.7 -4.4 -0.5 -4.7 -2.6 -4.7 -3.4 0 -0.5 3.3 -1.1 4.2 -3.3 4.7 -3.6 0.9 -4.1 2 -4.1 9.6 0 3.9 -0.6 7.8 -1.5 9.5 -0.8 1.7 -1.5 5.5 -1.5 9 0 5.4 -0.4 6.6 -3.5 10.7 l-3.5 4.6 0 11.9 c0 9.7 -0.3 12.1 -1.5 12.6 -1.1 0.4 -1.5 2 -1.5 5.8 0 3.2 -0.6 6.2 -1.5 7.5 -1 1.5 -1.7 6 -2.2 14.5 -0.4 8.7 -1 12.5 -1.9 13.1 -1 0.6 -1.4 3.1 -1.4 8.3 0 5.3 -0.5 8.2 -1.7 10.1 -1.2 1.8 -1.8 5.4 -2.1 11.7 -0.3 5.4 -1 9.9 -1.8 11.1 -0.9 1.2 -1.4 4.6 -1.4 8.8 0 4.4 -0.5 7.6 -1.5 9.1 -0.9 1.3 -1.9 5.7 -2.2 9.8 -0.3 4 -1.1 7.9 -1.7 8.7 -1.7 2.2 -1.7 15.7 0 17.2 1.8 1.5 1.8 4.5 -0.1 5.3 -0.9 0.3 -1.5 1.8 -1.5 4 0 1.9 -0.5 3.8 -1 4.1 -2.7 1.7 -6 8.7 -6 12.7 0 2.4 -0.7 5.2 -1.5 6.2 -1.9 2.6 -1.9 7 0 8.6 0.8 0.7 1.5 1.8 1.5 2.5 0 0.7 -0.7 1.8 -1.5 2.5 -0.8 0.7 -1.5 2.7 -1.5 4.5 0 2.3 -0.7 3.7 -2.2 4.8 -1.8 1.2 -2 1.8 -1.1 2.7 1.4 1.5 3.3 0.5 3.3 -1.6 0 -0.9 0.6 -1.4 1.3 -1.2 1.9 0.7 2.1 7.2 0.3 8.8 -2 1.6 -2 3.9 -0.1 4.6 0.8 0.3 1.7 1.5 2 2.5 0.6 1.8 1.5 2 8.3 1.7 l7.7 -0.3 0.5 -3.4z m47.5 -157.1 c0 -0.7 -0.6 -1.5 -1.2 -1.7 -0.8 -0.3 -1.3 0.4 -1.3 1.7 0 1.3 0.5 2 1.3 1.8 0.6 -0.3 1.2 -1.1 1.2 -1.8z"/>
  <path d="M343 413.9 c-1.2 -2.2 -0.6 -6.9 1 -6.9 1.2 0 5 5.5 5 7.4 0 2.4 -4.7 2 -6 -0.5z"/>
  <path d="M356.5 347 c-1 -1.6 1.6 -4.3 2.8 -3.1 1.1 1.1 0.2 4.1 -1.2 4.1 -0.5 0 -1.3 -0.5 -1.6 -1z"/>
  <path d="M160.7 443.7 c-1.2 -1.5 -2 -1.8 -2.3 -0.9 -0.8 1.7 -3.8 1.5 -5.8 -0.5 -1 -1 -2.8 -3.6 -4 -5.8 -1.4 -2.6 -3 -4.1 -4.5 -4.3 -2.9 -0.5 -6 -3.9 -6.1 -6.8 0 -1.1 -1.3 -3.6 -3 -5.4 -1.6 -1.8 -3 -3.8 -3 -4.3 0 -0.5 -1.1 -1.8 -2.6 -2.9 -2 -1.7 -2.4 -2.6 -1.9 -5 0.7 -3.1 -1 -6.6 -5.2 -10.5 -1.2 -1.2 -2.3 -2.9 -2.3 -3.8 0 -0.9 -0.7 -2.9 -1.5 -4.5 -1.1 -2.2 -1.2 -2.9 -0.2 -3.3 1.7 -0.5 -0.8 -5.7 -2.8 -5.7 -0.8 0 -1.6 -0.8 -1.7 -1.7 -0.1 -1 -0.2 -2.5 -0.3 -3.3 -0.1 -0.8 -0.8 -2.8 -1.7 -4.5 -1 -1.9 -1.5 -5.5 -1.5 -9.9 0.1 -5.4 -0.3 -7 -1.6 -7.8 -0.9 -0.5 -1.7 -1.6 -1.7 -2.4 0 -1.2 0.9 -1.5 4.2 -1.2 2.7 0.2 4.3 -0.1 4.5 -0.9 0.3 -0.9 -0.7 -1.3 -3.4 -1.3 -5.9 0 -8.8 -4 -8.9 -12.5 -0.1 -3.6 -0.7 -7.2 -1.4 -8 -0.9 -1 -0.9 -1.5 -0.1 -1.5 1.7 0 1.4 -7 -0.4 -7.6 -0.8 -0.4 -1.5 -1.2 -1.5 -1.9 0 -0.6 -0.9 -2 -2 -3 -1.5 -1.4 -1.9 -2.7 -1.5 -6.6 0.3 -4.1 0 -5.3 -1.7 -6.9 l-2.2 -2 3.2 0 c2.9 0 3.2 -0.3 3.2 -3 0 -1.6 -0.4 -3 -1 -3 -0.5 0 -1 0.7 -1 1.5 0 0.8 -0.9 1.5 -2 1.5 -1.6 0 -2 -0.7 -2 -3.2 0 -1.7 -0.7 -3.9 -1.5 -4.8 -2 -2.2 -2.7 -5.7 -1.9 -9.2 0.8 -4.1 3.4 -3.6 3.4 0.7 0 4.3 1.6 4.6 2.5 0.6 0.5 -2.2 0.1 -3.5 -1.4 -5 -1.7 -1.7 -2.1 -3.4 -2.1 -9.5 0 -6.7 -0.2 -7.4 -2.2 -7.9 -2 -0.6 -2.1 -0.9 -1.5 -10.8 0.4 -6.4 1.2 -11 2.1 -12.4 1.2 -1.8 1.6 -6 1.8 -17.2 l0.3 -14.8 3.3 -0.3 c1.9 -0.2 3.2 -0.9 3.3 -1.8 0 -0.8 0.1 -3.9 0.1 -6.9 0 -8.6 0 -8.5 -3 -8.5 -2 0 -3.5 -0.9 -5 -3 -2 -2.7 -2.2 -4.1 -2.2 -17.9 0 -15 0 -15 2.8 -17.9 1.5 -1.7 3.6 -3.2 4.7 -3.4 1.6 -0.3 2.1 -1.2 2.3 -5.4 0.3 -4.6 0 -5.4 -3.3 -9 -2.9 -3.2 -3.5 -4.5 -3.3 -7.4 0.3 -3.3 0.5 -3.5 4.1 -3.8 4.7 -0.4 7.4 1.7 8 6.2 0.4 2.9 0.4 2.9 0.5 -0.6 0.2 -3.1 0.6 -3.8 2.2 -3.8 1.2 0 2 0.7 2 1.6 0 2.3 4.8 7.7 8.1 9.1 2.6 1.1 2.9 1.7 2.9 6.1 0 2.6 0.5 5.3 1.2 6 0.9 0.9 0.4 1.2 -2.2 1.3 -2.2 0.1 -2.7 0.3 -1.5 0.6 2.4 0.6 5.5 3.7 5.5 5.5 0 0.7 0.9 1.9 2.1 2.6 1.8 1.1 2 2.1 1.7 6.7 -0.2 4.1 0.1 5.6 1.3 6.4 1.2 0.7 1.6 2.4 1.6 6 -0.1 3.9 0.4 5.6 2.2 7.5 2 2.1 2.1 2.8 1.3 7.5 -0.9 4.9 -0.8 5.3 1.4 6.8 2.1 1.4 2.4 2.3 2.4 8.3 0 4.5 -0.4 7 -1.2 7.3 -0.8 0.4 -0.7 0.6 0.3 0.6 3.2 0.2 4.4 3.1 4 9.5 -0.2 3.4 -0.8 6.4 -1.4 6.8 -1.3 0.8 -1.3 0.7 2.6 3.1 2.5 1.6 2.7 2.2 2.7 8.7 0 4.9 -0.4 7 -1.2 7 -0.7 0 -0.2 0.9 1.2 2 2.3 1.6 2.6 2.7 2.8 8.6 0.2 4.6 -0.1 7 -1 7.5 -0.8 0.5 -0.4 1.1 1.5 1.8 3.2 1.3 4.6 3.9 2.6 5.2 -1 0.6 -1 0.9 -0.1 0.9 0.6 0 1.2 1.1 1.2 2.5 0 1.6 -0.6 2.5 -1.5 2.5 -0.8 0 -1.5 0.9 -1.5 2 0 1.2 0.7 2 1.8 2 1.4 0 1.4 0.2 0.3 0.9 -1.2 0.8 -1.2 1.2 -0.2 2.5 0.8 0.9 2 1.6 2.7 1.6 1.9 0 2.1 23 0.2 23 -0.7 0.1 -0.2 1 1.1 2.1 1.9 1.6 2.5 3.1 2.6 6.7 0.1 2.6 0.5 5.5 0.9 6.5 0.6 1.2 0.4 1.7 -0.8 1.7 -2.4 0 -1.9 1.9 0.8 2.9 2.5 1 4.4 4.3 2.7 4.9 -1.4 0.5 -1.4 9.2 -0.1 9.2 0.6 0 1 1.3 1 3 0 1.9 0.7 3.3 2 4 2.4 1.3 2.6 3 0.5 3 -2 0 -1.9 1.6 0.1 2.4 1.3 0.5 1.5 1.5 1 4.7 -0.6 3.5 -0.3 4.4 1.4 5.6 2.2 1.5 2.7 5.3 0.8 5.3 -1 0 -0.9 0.3 0.1 0.9 0.7 0.5 1.1 1.4 0.7 2 -0.4 0.5 0.2 1.6 1.4 2.3 2.6 1.7 2.6 4.8 0 4.8 -1.1 0 -2 0.7 -2 1.5 0 0.8 0.9 1.5 2 1.5 1.8 0 2.6 1.6 2.1 4.3 -0.2 1.3 2.7 2 5.4 1.3 1.4 -0.4 2.3 -1 2.1 -1.5 -0.3 -0.5 0.3 -1.6 1.4 -2.6 2 -1.8 2 -1.7 2 2.8 0 3.3 -0.4 4.7 -1.3 4.7 -1.8 0 -4.7 3.2 -4.7 5.2 0 0.9 0.6 2.1 1.4 2.7 1.4 1.1 2.1 6.5 3.2 24.2 0.6 8.3 0.5 8.6 -1.9 10.2 -1.3 0.8 -2.7 2.8 -3 4.4 -0.5 1.9 -2 3.6 -5.2 5.6 -2.6 1.5 -5 2.7 -5.6 2.7 -0.5 0 -0.9 0.5 -0.9 1 0 1.6 -1.4 1.1 -3.3 -1.3z m-0.2 -7.9 l1.6 -2.3 1.6 2.3 1.6 2.3 2.9 -2.7 c4.1 -4 3.9 -8.5 -0.7 -12.7 -2.8 -2.6 -3.5 -3.9 -3.5 -7 0 -2.3 0.5 -4 1.4 -4.3 0.8 -0.3 1.6 -1.4 1.9 -2.5 0.7 -2.5 3.7 -2.5 3.7 0.1 0 1.1 -0.6 2 -1.4 2 -2.3 0 -3 2 -1.3 3.8 1.5 1.4 1.7 1.4 2.3 -0.4 0.4 -1 1.3 -2.7 2.1 -3.6 1.3 -1.4 1.2 -2 -0.9 -4.9 -1.2 -1.9 -2.9 -4 -3.6 -4.8 -0.7 -0.7 -1.1 -2 -0.8 -2.7 0.7 -1.9 -0.3 -4.4 -1.9 -4.4 -0.7 0 -1.6 0.7 -1.9 1.6 -0.3 0.9 -1.1 1.4 -1.8 1.2 -0.9 -0.3 -1.2 -5.1 -1.2 -17 -0.1 -14.3 -0.3 -16.8 -1.8 -18.5 -1.2 -1.3 -1.8 -3.6 -1.8 -7 0 -3.3 -0.5 -5.5 -1.5 -6.3 -1.1 -1 -1.5 -3.5 -1.5 -11 0 -8.4 -0.3 -9.9 -2 -11.5 -1.7 -1.5 -2 -3.1 -2 -9.5 0 -5.7 -0.4 -8.1 -1.5 -9 -1.1 -1 -1.5 -3.5 -1.5 -11 0 -8.4 -0.3 -9.9 -2 -11.5 -1.8 -1.6 -2 -3.1 -2 -15.5 0 -10.4 -0.3 -14.1 -1.5 -15.6 -0.8 -1 -1.5 -3.2 -1.5 -4.8 0 -1.6 -0.8 -3.8 -1.7 -4.8 -1.4 -1.6 -1.7 -4 -1.8 -13.2 0 -8.9 -0.4 -11.8 -1.8 -13.9 -0.9 -1.4 -1.7 -3.8 -1.7 -5.3 0 -1.5 -0.8 -3.3 -1.7 -4 -1.5 -1 -1.7 -2.5 -1.5 -8.7 0.3 -7.8 -0.9 -10.6 -3.3 -7.4 -1.5 2.1 -3.1 2.2 -3.9 0.2 -1.1 -2.9 -2.6 -1.5 -2.6 2.4 0 2.2 0.6 4.4 1.5 5.1 1.3 1.1 1.5 8.3 1.5 53.5 0 50.9 -0.1 52.3 -2 54.5 l-2 2.3 2 2.2 c1.8 1.9 2 3.5 2 14.2 0 9.5 0.3 12.3 1.5 13.3 2.1 1.8 2.2 22 0.1 22 -0.8 0 -1.8 -0.9 -2.1 -2 -0.7 -2.2 -2 -2.6 -3 -0.9 -0.4 0.6 0.2 2.1 1.4 3.3 1.8 1.9 2.1 3.5 2.1 11.4 0 9 1.2 12.4 3.2 8.8 1.2 -2.2 2.5 -2 3.3 0.4 0.3 1.1 1.1 2 1.7 2 0.5 0 1.2 -0.9 1.5 -2 0.3 -1.1 1.2 -2 1.9 -2 0.8 0 1.4 0.9 1.4 2 0 1.1 -0.5 2 -1 2 -0.6 0 -1.5 1.2 -2.1 2.8 -1 2.6 -1.1 2.6 -2.4 0.8 -0.8 -1 -1.6 -2.4 -1.9 -3 -0.3 -0.7 -0.8 -0.6 -1.6 0.4 -1.6 2.2 -0.4 6.7 3 11 2.4 3.1 3 4.7 3 8.8 0 3.9 0.5 5.7 2.3 7.5 1.2 1.3 5.1 6.3 8.7 11.1 10 13.4 11 14.6 13 14.6 1.1 0 2.6 -1 3.5 -2.2z m13.3 -13 c-0.2 -1.3 -0.7 -2.3 -1.3 -2.3 -0.5 0 -1.1 1 -1.3 2.3 -0.2 1.5 0.2 2.2 1.3 2.2 1.1 0 1.5 -0.7 1.3 -2.2z m-71.8 -115.2 c0 -0.8 -0.4 -1.8 -1 -2.1 -0.5 -0.3 -1 0.3 -1 1.4 0 1.2 0.5 2.1 1 2.1 0.6 0 1 -0.6 1 -1.4z m20.5 -131.6 c0.4 -1.6 0.3 -3.4 0 -4 -1.1 -1.8 -3.5 0.9 -3.5 4 0 5 2.4 5 3.5 0z m-7.7 -44.1 c-0.7 -0.5 -1.6 -0.9 -2 -0.9 -1.5 0 -0.8 4 1 5.8 1.6 1.7 1.7 1.6 2 -1.2 0.2 -1.6 -0.2 -3.3 -1 -3.7z"/>
  <path d="M157.4 423.6 c-0.9 -2.3 0.4 -3.6 3.7 -3.6 2.6 0 3 0.3 2.7 2.3 -0.4 2.7 -5.5 3.8 -6.4 1.3z"/>
  <path d="M160.7 405.6 c-0.7 -1.9 1.8 -4.2 2.8 -2.6 0.8 1.3 -0.1 4 -1.4 4 -0.5 0 -1.1 -0.6 -1.4 -1.4z"/>
  <path d="M130 264 c0 -1.1 0.7 -2 1.5 -2 0.8 0 1.5 0.9 1.5 2 0 1.1 -0.7 2 -1.5 2 -0.8 0 -1.5 -0.9 -1.5 -2z"/>
  <path d="M178 437.7 c0 -4 1.2 -5.1 5 -4.5 2 0.3 2 0.5 -1.4 4.3 l-3.5 4 -0.1 -3.8z"/>
  <path d="M182 427.4 c0 -2.7 0.5 -3.7 2 -4.1 1.6 -0.4 2 -1.4 2 -4.4 0 -3.7 0.2 -3.9 3 -3.9 3.6 0 4 2 1 5 -1.1 1.1 -2 2.8 -2 3.9 0 1 -0.7 2.4 -1.5 3.1 -0.8 0.7 -1.5 1.9 -1.5 2.6 0 0.8 -0.7 1.4 -1.5 1.4 -1.1 0 -1.5 -1.1 -1.5 -3.6z"/>
  <path d="M192 405.7 c0 -2.1 0.4 -3.7 0.9 -3.7 0.6 0 1.1 -1.7 1.3 -3.7 0.2 -3.1 0.7 -3.9 2.6 -4.1 1.7 -0.3 2.2 0.2 2.2 1.8 0 1.1 -0.7 2.3 -1.5 2.6 -0.9 0.4 -1.5 1.9 -1.5 3.9 0 1.9 -0.8 3.9 -2 5 -2 1.8 -2 1.7 -2 -1.8z"/>
  <path d="M310.8 407.3 c-1 -1.1 -1.8 -3.3 -1.8 -5 0 -1.8 -0.6 -3.3 -1.5 -3.7 -0.8 -0.3 -1.5 -1.5 -1.5 -2.6 0 -2.5 3.8 -2.8 4.7 -0.2 0.4 0.9 1.1 2 1.5 2.3 0.5 0.3 0.8 3 0.6 5.9 -0.3 5.1 -0.4 5.2 -2 3.3z"/>
  <path d="M198 386.3 c0 -1 0.3 -4.2 0.6 -7 0.6 -5 0.8 -5.3 3.6 -5.3 2.8 0 2.8 0 1.2 2.5 -0.8 1.3 -1.3 3.3 -1 4.3 0.4 1.2 -0.2 2.8 -1.9 4.6 -2.1 2.2 -2.5 2.4 -2.5 0.9z"/>
  <path d="M304.2 385.3 c-1.9 -2.2 -2.1 -3.4 -1.6 -7.2 0.5 -3.9 0.3 -4.9 -1.5 -6.5 -2.5 -2.2 -2.8 -5.6 -0.6 -5.6 3.7 0 5.2 3.2 5.9 12.8 0.4 5 0.5 9.2 0.4 9.1 -0.2 0 -1.3 -1.2 -2.6 -2.6z"/>
  <path d="M320 375.7 c0 -1.9 -0.8 -4.2 -2 -5.5 -1.5 -1.5 -2 -3.5 -2 -7.2 0 -3.7 -0.5 -5.5 -2 -7 -1.2 -1.2 -2 -3.3 -2 -5.5 0 -2.8 0.4 -3.5 2 -3.5 1.4 0 2 0.7 2 2.1 0 1.1 0.9 3.2 2 4.6 1.5 2 1.8 3.4 1.3 6.8 -0.4 3.6 -0.2 4.6 1.6 6.1 1.3 1.2 2.1 3 2.1 5 0 1.7 0.7 3.7 1.5 4.4 2.3 1.9 1.8 3 -1.5 3 -2.7 0 -3 -0.3 -3 -3.3z"/>
  <path d="M182 370.2 c0 -1 0.9 -2.5 2 -3.5 1.1 -0.9 2 -2.9 2 -4.4 0.1 -2.5 2.9 -7.3 4.4 -7.3 0.3 0 0.6 1.6 0.6 3.5 0 1.9 -0.4 3.5 -1 3.5 -0.5 0 -1 1.3 -1 3 0 1.6 -0.8 3.9 -1.7 5 -2.2 2.5 -5.3 2.6 -5.3 0.2z"/>
  <path d="M203 358.5 c0 -2.4 0.5 -3.5 1.5 -3.5 0.9 0 1.5 -0.9 1.5 -2.5 0 -3.1 2.5 -3.3 3.4 -0.2 0.4 1.4 -0.1 3.2 -1.4 4.9 -1.1 1.5 -2 3.2 -2 3.8 0 0.5 -0.7 1 -1.5 1 -1 0 -1.5 -1.1 -1.5 -3.5z"/>
  <path d="M189 348.2 c0 -1.1 0.9 -2.7 2 -3.7 2 -1.8 2 -1.7 2 1.8 0 3 -0.4 3.7 -2 3.7 -1.3 0 -2 -0.7 -2 -1.8z"/>
  <path d="M206 345.5 c0 -2.4 0.5 -3.5 1.5 -3.5 1.1 0 1.5 -1.2 1.5 -4.5 0 -3.8 0.3 -4.5 2 -4.5 1.7 0 2 0.7 2 4.8 0 3.5 -0.5 5.2 -2 6.5 -1.1 0.9 -2 2.4 -2 3.2 0 0.8 -0.7 1.5 -1.5 1.5 -1 0 -1.5 -1.1 -1.5 -3.5z"/>
  <path d="M296 343.6 c0 -0.8 -0.7 -2.1 -1.5 -3 -0.9 -0.8 -1.7 -3.7 -1.9 -6.5 -0.1 -3 -1 -5.8 -1.9 -6.9 -1 -1 -1.4 -2.2 -1 -2.5 0.3 -0.4 0.2 -0.7 -0.4 -0.7 -0.6 0 -0.9 -0.9 -0.6 -2 0.7 -2.7 2.1 -2.5 4.8 0.6 1.7 1.9 2.4 4.3 2.7 8.7 0.3 3.4 1 6.3 1.6 6.5 1.8 0.6 1.5 7.2 -0.3 7.2 -0.8 0 -1.5 -0.6 -1.5 -1.4z"/>
  <path d="M309 342.1 c0 -1.6 -0.6 -3.1 -1.5 -3.5 -0.8 -0.3 -1.5 -1.8 -1.5 -3.4 0 -3 -2 -8.2 -3.2 -8.2 -0.5 0 -0.8 -2.5 -0.8 -5.7 0 -5.5 0 -5.6 2 -3.8 1.2 1.1 2 3.1 2 5 0 2 0.6 3.5 1.5 3.9 0.9 0.3 1.5 1.8 1.5 3.7 0 1.8 0.7 4.1 1.6 5 0.9 1 2 3.7 2.4 5.9 0.7 3.7 0.6 4 -1.6 4 -2 0 -2.4 -0.5 -2.4 -2.9z"/>
  <path d="M193 338.5 c0 -0.8 0.9 -2.4 2 -3.5 l2 -2 0 3.5 c0 2.8 -0.4 3.5 -2 3.5 -1.1 0 -2 -0.7 -2 -1.5z"/>
  <path d="M196 329.2 c0 -1 0.9 -2.5 2 -3.5 1.1 -0.9 2 -2.4 2 -3.2 0 -0.8 0.7 -1.5 1.5 -1.5 2.1 0 2 5.4 -0.2 8 -2.2 2.5 -5.3 2.6 -5.3 0.2z"/>
  <path d="M213.3 312.1 c0.8 -7.7 3.3 -12.1 7 -12.1 2.2 0 2.7 0.4 2.7 2.5 0 1.6 -0.6 2.5 -1.5 2.5 -1 0 -1.5 1 -1.5 2.9 0 1.6 -0.6 3.6 -1.4 4.3 -0.7 0.8 -1.7 2.4 -2 3.6 -0.4 1.2 -1.4 2.2 -2.3 2.2 -1.3 0 -1.5 -0.9 -1 -5.9z"/>
  <path d="M405 312.3 c0 -10 0.8 -12.3 4.1 -12.3 2.4 0 2.9 0.4 2.9 2.5 0 1.4 -0.6 2.5 -1.3 2.5 -0.8 0 -1.4 0.6 -1.5 1.3 -0.1 0.6 -0.3 2.9 -0.6 5 -0.2 2.1 -1.1 4.6 -2 5.5 -1.5 1.5 -1.6 1.2 -1.6 -4.5z"/>
  <path d="M296.8 311.9 c-1.4 -0.8 -1.8 -2.4 -1.8 -7.6 l0 -6.6 2.1 1.9 c1.3 1.2 1.9 2.7 1.6 4.1 -0.2 1.4 0.3 2.9 1.4 3.9 4 3.6 1.3 7 -3.3 4.3z"/>
  <path d="M206.2 304.8 c0.6 -2.4 1.7 -5 2.4 -5.9 0.8 -0.8 1.4 -1.9 1.4 -2.2 0 -0.4 0.9 -1.6 2 -2.7 1.1 -1.1 2 -2.7 2 -3.5 0 -0.8 0.7 -1.5 1.5 -1.5 1 0 1.5 1.1 1.5 3.5 0 2.4 -0.5 3.5 -1.5 3.5 -0.8 0 -1.5 0.7 -1.5 1.5 0 0.8 -0.6 1.5 -1.4 1.5 -0.9 0 -1.6 1.7 -2.1 5 -0.6 4.4 -1 5 -3 5 -2.2 0 -2.2 -0.2 -1.3 -4.2z"/>
  <path d="M283.8 303 c-1.2 -1.3 -1.8 -3.7 -1.8 -6.8 0 -2.7 -0.7 -5.7 -1.5 -6.8 -0.8 -1 -1.5 -3 -1.5 -4.2 0 -1.3 -0.9 -3.7 -2.1 -5.3 -2.6 -3.7 -2.2 -7.4 0.9 -7.4 1.2 0 2.2 0.4 2.1 0.8 0 0.5 1.1 1.7 2.5 2.8 2.9 2.3 3.4 3.9 1.1 3.9 -1.9 0 -2 4.6 -0.1 5.3 1.4 0.6 3.2 12.9 2.4 17.5 l-0.3 2.3 -1.7 -2.1z"/>
  <path d="M289.3 293.3 c-1.3 -0.5 -1.9 -7.3 -0.7 -7.3 1.2 0 6.4 5.5 6.4 6.7 0 1.3 -3.3 1.6 -5.7 0.6z"/>
  <path d="M225 283.7 c0 -3.3 0.3 -3.7 2.5 -3.7 2 0 2.5 0.5 2.5 2.6 0 1.6 -0.4 2.3 -1.2 1.8 -0.6 -0.4 -1.7 0.1 -2.5 1.1 -1.2 1.7 -1.3 1.5 -1.3 -1.8z"/>
  <path d="M412 282.2 c0 -6 2.4 -7.4 3.5 -2.1 0.6 2.4 0.2 3.6 -1.4 5.2 l-2.1 2.1 0 -5.2z"/>
  <path d="M217 283.3 c0 -0.5 1.6 -2.6 3.5 -4.8 l3.4 -4 0.1 3.2 c0 4.9 -0.9 6.3 -4.1 6.3 -1.6 0 -2.9 -0.3 -2.9 -0.7z"/>
  <path d="M230.2 272.3 c0.3 -3.9 2.1 -5.5 3.2 -2.8 0.9 2.4 -0.4 6.5 -2.1 6.5 -1 0 -1.3 -1 -1.1 -3.7z"/>
  <path d="M269.3 269.6 c-0.6 -0.7 -1.3 -2.4 -1.5 -3.7 -0.2 -1.8 -1.1 -2.5 -3.3 -2.9 -2.2 -0.4 -3 -1.1 -3 -2.5 0 -3 5.1 -3.4 6 -0.5 0.4 1.3 1.8 2.3 3.6 2.7 2.3 0.4 2.9 1.1 2.9 3 0 1.3 -0.6 3.1 -1.4 3.9 -1.7 1.7 -1.8 1.7 -3.3 0z"/>
  <path d="M415 263.6 c0 -5.4 1.1 -9.6 2.6 -9.6 0.8 0 1.4 -0.4 1.4 -1 0 -0.5 0.6 -1 1.4 -1 2.2 0 2.5 3.5 0.5 6.1 -1 1.3 -1.9 3.9 -1.9 5.7 0 2.5 -0.4 3.2 -2 3.2 -1.6 0 -2 -0.7 -2 -3.4z"/>
  <path d="M86 261 c0 -3.3 0.3 -4 2 -4 1.7 0 2 0.7 2 4 0 3.3 -0.3 4 -2 4 -1.7 0 -2 -0.7 -2 -4z"/>
  <path d="M237.3 261.4 c-0.8 -2.2 1.5 -4.4 2.6 -2.5 1 1.6 0.4 4.1 -1 4.1 -0.5 0 -1.2 -0.7 -1.6 -1.6z"/>
  <path d="M244 256 c0 -1.1 0.7 -2 1.5 -2 0.8 0 1.5 0.9 1.5 2 0 1.1 -0.7 2 -1.5 2 -0.8 0 -1.5 -0.9 -1.5 -2z"/>
  <path d="M422 242.7 c0 -3 0.4 -3.7 2 -3.7 1.3 0 2 0.7 2 1.8 0 1.1 -0.9 2.7 -2 3.7 -2 1.8 -2 1.7 -2 -1.8z"/>
  <path d="M79 224.6 c0 -0.7 -0.7 -1.9 -1.5 -2.6 -2.3 -1.9 -1.8 -3 1.5 -3 2.8 0 3 0.3 3 3.5 0 2.4 -0.5 3.5 -1.5 3.5 -0.8 0 -1.5 -0.6 -1.5 -1.4z"/>
  <path d="M72.6 207.8 c-1.2 -4.8 -0.7 -7.8 1.4 -7.8 1.7 0 2 0.7 2 5 0 3.6 -0.4 5 -1.4 5 -0.7 0 -1.6 -1 -2 -2.2z"/>
  <path d="M433 191.5 c0 -2.4 0.5 -3.5 1.5 -3.5 1.2 0 1.5 -1.4 1.5 -6.5 0 -5.1 0.3 -6.5 1.5 -6.5 0.8 0 1.5 -0.7 1.5 -1.5 0 -0.8 0.9 -1.5 2 -1.5 2.4 0 2.8 3.5 0.5 4.4 -1.1 0.4 -1.5 2 -1.5 5.7 0 3.6 -0.6 5.8 -2 7.6 -1.1 1.4 -2 3.2 -2 3.9 0 0.8 -0.7 1.4 -1.5 1.4 -1 0 -1.5 -1.1 -1.5 -3.5z"/>
  <path d="M66.5 185 c-1 -1.2 -1.5 -2.8 -1.2 -4 0.3 -1.4 -0.2 -2.9 -1.4 -4.1 -1 -1 -1.9 -3.1 -1.9 -4.5 0 -1.4 -0.9 -3.7 -2 -5.1 -1.2 -1.6 -1.8 -3.4 -1.4 -4.7 0.3 -1.4 -0.2 -2.8 -1.5 -4 -1.3 -1.2 -2.1 -3.2 -2.1 -5.1 0 -2 -0.6 -3.5 -1.5 -3.9 -2.5 -0.9 -1.8 -3.6 1 -3.6 2.1 0 2.5 0.5 2.5 3 0 1.7 0.5 3 1 3 0.6 0 1 0.7 1 1.5 0 0.8 0.4 1.5 0.9 1.5 0.5 0 1.2 2 1.5 4.4 0.4 2.4 1.3 4.7 2.1 5 0.8 0.3 1.5 1.8 1.5 3.3 0 4.3 1.1 7.3 2.6 7.3 1 0 1.4 1.6 1.4 6 0 3.3 -0.2 6 -0.3 6 -0.2 0 -1.2 -0.9 -2.2 -2z"/>
  <path d="M441 167.5 c0 -1.9 0.5 -3.5 1 -3.5 0.6 0 1 -1.3 1 -3 0 -2.5 0.4 -3 2.4 -3 2.2 0 2.3 0.3 1.6 3.8 -0.7 3.8 -3.7 9.1 -5.2 9.2 -0.5 0 -0.8 -1.6 -0.8 -3.5z"/>
  <path d="M449 148.6 c0 -2.9 0.4 -3.6 2 -3.6 1.6 0 2 -1 2.6 -6.1 0.4 -3.7 1.2 -6.3 2 -6.6 0.8 -0.3 1.4 -1.1 1.4 -1.9 0 -0.7 0.6 -1.7 1.3 -2.1 0.7 -0.4 2 -2 2.9 -3.5 2.8 -4.3 6.4 -7.8 8.1 -7.8 1 0 1.7 -1.1 1.9 -3.2 0.3 -2.9 0.7 -3.3 3.6 -3.6 4.3 -0.4 4.2 1.5 -0.3 5.1 -1.9 1.5 -3.5 3.2 -3.5 3.8 0 0.5 -3.1 5 -7 9.8 -5 6.4 -7 9.7 -7 11.8 0 1.6 -0.8 3.6 -1.7 4.5 -1 0.9 -2.8 2.8 -4 4.3 l-2.3 2.7 0 -3.6z"/>
  <path d="M52 144 c0 -1.1 -17.1 -23.5 -20.1 -26.3 -1.1 -1 -1.7 -2.2 -1.4 -2.8 0.4 -0.5 0 -1.2 -0.8 -1.5 -2 -0.7 -3 -5 -1.7 -7.4 1.5 -2.7 4.4 -2.5 6.4 0.5 0.9 1.4 2.3 2.5 3.1 2.5 0.8 0 1.5 0.7 1.5 1.5 0 0.9 -1 1.5 -2.6 1.5 -2 0 -2.5 0.4 -2 1.6 0.3 0.9 0.6 2.4 0.6 3.5 0 1.3 0.7 1.9 2.4 1.9 1.6 0 3.2 1.3 5.2 4.2 1.6 2.3 3.7 5 4.6 5.9 0.9 1 2.5 3 3.5 4.6 0.9 1.5 2.3 3.2 3 3.6 1.9 1.2 1.7 7.7 -0.2 7.7 -0.8 0 -1.5 -0.4 -1.5 -1z"/>
  <path d="M96.8 113.3 c-2 -0.3 -2.8 -1 -2.8 -2.4 0 -1.5 0.7 -1.9 3.9 -1.9 3 0 4.2 0.5 5.5 2.5 1.6 2.5 1.6 2.5 -1.1 2.4 -1.6 -0.1 -4 -0.4 -5.5 -0.6z"/>
  <path d="M73 111 c0 -1.8 0.7 -2 5.5 -2 4.8 0 5.5 0.2 5.5 2 0 1.8 -0.7 2 -5.5 2 -4.8 0 -5.5 -0.2 -5.5 -2z"/>
  <path d="M423 111 c0 -1.9 0.7 -2 9 -2 8.3 0 9 0.1 9 2 0 1.9 -0.7 2 -9 2 -8.3 0 -9 -0.1 -9 -2z"/>
 </g>
 <g fill="#0991cb">
  <path d="M163 448 c-0.4 -0.3 -1 -1.9 -1.4 -3.5 -0.5 -2.5 -1.2 -3.1 -3.6 -3.3 -2.2 -0.2 -3 0.2 -3 1.4 0 1.6 -0.2 1.5 -2 -0.1 -1.1 -1 -2 -2.7 -2 -3.7 0 -1.5 0.3 -1.7 1.9 -0.8 1.1 0.5 2.9 1 4 1 1.2 0 2.9 0.5 3.9 1.1 2.6 1.6 11 -3.6 11.9 -7.4 0.3 -1.6 1.6 -3.5 2.9 -4.4 1.9 -1.2 2.4 -2.4 2.4 -5.7 0 -2.2 -0.5 -5.7 -1.1 -7.6 -0.6 -1.9 -1 -5.7 -1 -8.4 0.1 -4.1 -0.3 -5.4 -2.5 -7.7 -2.5 -2.6 -2.6 -3 -1.4 -6.1 1.6 -4.1 3.9 -6.8 5.7 -6.8 0.7 0 1.3 -0.8 1.3 -1.9 0 -1 0.7 -2.4 1.5 -3.1 1 -0.8 1.5 -3 1.5 -6.5 0 -3.9 0.5 -5.6 2 -7 2 -1.8 2 -1.7 2 5.8 0 8.8 -0.5 10.7 -3.1 10.7 -1.4 0 -1.9 0.7 -1.9 2.7 0 1.5 -1 3.7 -2.2 5 -1.9 2.1 -2 2.4 -0.6 4 0.8 1 1.8 4.5 2.2 7.7 0.4 3.3 1.4 7.4 2.2 9.3 1.3 2.6 1.5 4.9 0.9 10.8 -0.6 6.5 -1 7.7 -3.3 9.4 l-2.7 2 2.8 0.1 2.8 0 -2.2 3.3 c-2.6 3.6 -5.1 5.7 -6.1 5.1 -0.3 -0.2 -1.6 0.8 -2.8 2.3 -2 2.6 -6.6 3.8 -9 2.3z"/>
  <path d="M338.6 444.9 c-1 -1.7 -2.1 -2.7 -2.5 -2.3 -1.2 1.7 -5.1 0.9 -6.6 -1.3 -0.9 -1.3 -2.5 -2.3 -3.6 -2.3 -1.2 0 -1.9 -0.7 -1.9 -2 0 -1.2 0.7 -2 1.8 -2 1.2 0 0.6 -1.1 -2.3 -3.9 -5.5 -5.4 -6.5 -6.7 -6.5 -8.8 0 -1 -0.6 -3 -1.4 -4.5 -1.4 -2.6 -1.3 -2.7 1.2 -3 2.2 -0.3 2.9 -1.3 4.9 -7.2 1.3 -3.8 3.1 -7.9 3.9 -9 1.1 -1.6 1.3 -3.6 0.8 -7.9 l-0.7 -5.9 3 1.5 c2.7 1.4 3 1.4 4.1 -0.4 0.7 -1 1.2 -3.2 1.2 -4.8 0 -1.6 0.7 -3.4 1.5 -4.1 1 -0.8 1.5 -3 1.5 -6.5 0 -3.7 0.6 -6 2 -7.8 1.5 -1.9 2 -4 2 -8.5 0 -6.4 0.9 -8.2 3 -5.7 0.9 1 1 3 0.6 6.3 -0.4 2.6 -1 7.3 -1.3 10.5 -0.3 3.1 -0.9 5.7 -1.4 5.7 -0.5 0 -0.9 1.2 -0.9 2.8 0 1.5 -0.9 4.4 -2 6.5 -1.1 2 -2 4.7 -2 6 0 3.3 -3.5 12.4 -6.3 16 -2.1 2.9 -2.3 4 -1.9 10.5 0.4 7.5 -0.6 9.2 -3.4 5.5 -2.1 -2.8 -1.7 0.3 0.6 4.5 4 7.4 8.6 12.7 11.9 13.8 1.9 0.6 3.8 1.8 4.3 2.7 1.2 2.3 2.5 2.1 3.3 -0.3 0.8 -2.6 6.3 -2.8 7.2 -0.3 0.4 0.9 0.1 1.9 -0.5 2.1 -0.7 0.2 -1.2 1.1 -1.3 2 0 1.1 -0.2 1.2 -0.6 0.5 -0.5 -1.5 -3.9 -1.7 -4.7 -0.4 -0.4 0.5 -0.1 1.1 0.5 1.3 2.1 0.7 -0.3 3.8 -3 3.8 -1.9 0 -3.2 -0.9 -4.5 -3.1z"/>
  <path d="M357.2 431.3 c0.2 -2.2 0.8 -2.8 2.7 -2.8 2.2 0 5.2 2.8 4.1 3.8 -0.3 0.3 -2 0.8 -3.8 1.2 -3.2 0.7 -3.3 0.6 -3 -2.2z"/>
  <path d="M365.6 422.4 c-0.9 -2.2 -0.9 -2.3 1.9 -4.8 3.2 -2.9 6.5 -2.4 6.5 1 0 1.7 -0.4 2.2 -1.5 1.8 -1 -0.4 -1.5 0 -1.5 1.5 0 1.5 -0.6 2.1 -2.4 2.1 -1.3 0 -2.7 -0.7 -3 -1.6z"/>
  <path d="M134 418.5 c-1.4 -3.7 0.1 -5.2 2.5 -2.5 1.7 1.9 1.7 2.2 0.2 3.7 -1.5 1.5 -1.7 1.4 -2.7 -1.2z"/>
  <path d="M186 417.6 c0 -1.9 0.4 -3.7 0.9 -4 0.5 -0.4 1.2 -2.4 1.6 -4.7 0.4 -2.2 1.3 -4.3 2.1 -4.6 0.8 -0.3 1.4 -1.8 1.4 -3.3 0 -4.6 1 -6 4.1 -6 3.2 0 3.7 1.1 1.4 3 -0.8 0.7 -1.5 2.5 -1.5 4 0 1.5 -0.9 3.9 -2 5.3 -1.3 1.6 -2 4 -2 6.6 0 3 -0.4 4.1 -1.5 4.1 -0.8 0 -1.5 0.7 -1.5 1.5 0 0.8 -0.7 1.5 -1.5 1.5 -1 0 -1.5 -1 -1.5 -3.4z"/>
  <path d="M313 410.6 c0 -0.7 -0.7 -1.9 -1.5 -2.6 -0.8 -0.7 -1.5 -2.4 -1.5 -3.9 0 -1.5 -0.7 -3.7 -1.6 -4.9 -1.5 -2.1 -1.4 -2.2 1.5 -2.2 2.8 0 3.1 0.3 3.1 2.9 0 1.6 0.7 3.6 1.5 4.5 0.8 0.8 1.5 2.8 1.5 4.5 0 2.1 -0.5 3.1 -1.5 3.1 -0.8 0 -1.5 -0.6 -1.5 -1.4z"/>
  <path d="M374.2 410.7 c-2 -0.9 -2.3 -1.5 -1.7 -4.6 0.8 -4.4 0.6 -4.1 3.1 -3.5 1.7 0.5 2.1 1.3 1.9 4.5 -0.2 4.7 -0.4 4.9 -3.3 3.6z"/>
  <path d="M127.9 409.8 c-0.1 -0.7 -0.1 -1.8 0 -2.5 0.1 -0.7 -1.4 -3.3 -3.4 -5.8 -2 -2.7 -3.5 -5.8 -3.5 -7.4 0 -1.5 -0.9 -3.8 -2 -5.1 -1.1 -1.3 -2 -3.3 -2 -4.5 0 -1.3 -0.7 -2.8 -1.5 -3.5 -0.8 -0.7 -1.5 -2.8 -1.5 -4.7 0 -1.9 -0.7 -4.8 -1.6 -6.5 -1.1 -2.2 -1.4 -4.5 -1 -7.4 0.6 -4.9 -0.9 -10.4 -3 -10.4 -0.9 0 -1.4 -1.1 -1.4 -3.3 0 -1.8 -0.5 -3.8 -1.1 -4.4 -0.6 -0.6 -1.4 -4.5 -1.7 -8.5 -0.3 -4 -1.1 -8.3 -1.9 -9.5 -0.8 -1.2 -1.7 -5.1 -1.9 -8.5 -0.6 -8.1 -3.3 -16.8 -5.8 -18.9 -1.6 -1.4 -1.8 -2.4 -1.2 -6.7 0.4 -3.1 0.3 -5.3 -0.4 -5.7 -0.5 -0.3 -1 -2.9 -1 -5.7 0 -5.6 -2.5 -11.8 -4.7 -11.8 -1 0 -1.4 -1.2 -1.2 -4.7 0.3 -8.3 -1.3 -34.7 -2.2 -36.3 -0.6 -1 -0.8 -0.1 -0.9 2.8 0 3.6 -0.3 4.3 -1.7 4 -1.4 -0.3 -1.9 -1.5 -2.1 -6.3 -0.2 -3.9 -0.8 -6.3 -1.8 -6.8 -2.2 -1.2 -1.8 -4.7 0.6 -4.7 2.5 0 2.5 -1.5 0 -4 -1.1 -1.1 -2 -3.1 -2 -4.5 0 -1.5 -0.6 -2.5 -1.4 -2.5 -0.8 0 -1.7 -1.3 -2.1 -2.9 -0.3 -1.6 -1.3 -3.5 -2.1 -4.2 -2.1 -1.7 -1.7 -2.9 1.1 -2.9 2.2 0 2.5 -0.4 2.5 -3.9 0 -2.2 0.5 -4.3 1 -4.6 0.6 -0.3 1 -1.7 1 -3.1 0 -1.7 -0.5 -2.4 -2 -2.4 -2.6 0 -3.9 -2.7 -4.7 -10 l-0.6 -6 3.3 0 c2.2 0 3.8 0.7 5.2 2.5 1.6 2 2.3 2.3 3.9 1.5 1.7 -0.9 1.9 -2.2 1.9 -9.8 0 -7.3 -0.3 -9 -1.9 -10.4 -1 -0.8 -2.1 -2.2 -2.3 -2.9 -1.1 -3.1 -2.1 0.5 -2.2 7.8 l-0.1 7.8 -3.8 0.3 -3.7 0.3 0 -9.5 c0 -8.9 0.1 -9.6 2 -9.6 1.5 0 2 -0.7 2 -2.7 0 -1.4 0.7 -3.4 1.6 -4.4 2.6 -2.9 1.1 -4.9 -3.6 -4.9 l-4 0 0 -4 c0 -3.1 0.4 -4 1.8 -4 2.5 0 7.2 -5.4 7.2 -8.4 l0 -2.6 -14 0 c-13.3 0 -14 -0.1 -14 -2 0 -2 0.6 -2 26.5 -1.9 24.9 0.2 26.6 0.3 28.2 2.2 1 1 2.8 2.3 4.1 2.8 1.8 0.7 2.3 1.5 2 3.5 -0.3 2.8 4.6 9 9.1 11.4 2 1 2.3 1.7 1.8 5 -0.4 3 -0.1 4.3 1.4 5.6 2.2 1.9 2.6 8 0.7 8.7 -1.3 0.5 -1.1 0.6 3.5 2.1 1.6 0.5 1.8 1.3 1.2 4.9 -1 6.3 -1.6 7.8 -2.8 7.4 -0.7 -0.2 -1.3 -3 -1.5 -6.5 -0.2 -4.4 -0.7 -6.2 -1.6 -6.2 -0.8 0 -1.6 0.7 -2 1.5 -0.3 0.8 -1 1.5 -1.6 1.5 -1.4 0 -1.3 -3.3 0.2 -4.8 0.9 -0.9 0.9 -1.5 0 -2.4 -0.9 -0.9 -1.2 -0.7 -1.2 1 0 1.2 -0.4 2.2 -0.9 2.2 -1.7 0 -3.3 -3 -2.8 -5.1 0.3 -1.3 -0.2 -2.8 -1.4 -4 -1.3 -1.3 -1.9 -3.3 -1.9 -6.1 0 -5.4 -1.1 -7.1 -4.1 -6.6 -2.3 0.3 -2.4 0.8 -2.9 8.3 -0.4 7 -0.7 8 -2.5 8.3 -1.1 0.2 -3.2 1.7 -4.8 3.4 -2.6 2.9 -2.7 3.2 -2.7 14.9 0 10.8 0.2 12.3 2.2 14.9 2.6 3.5 3.4 3.7 4.3 1 1.1 -3.4 3.5 -2.4 3.5 1.4 0 1.8 0.7 3.9 1.5 4.6 1.9 1.6 1.9 4.4 0 6 -1.4 1.2 -1.4 1.5 0 3 1.9 2.1 1.9 4.4 0 6 -0.8 0.7 -1.5 2.8 -1.5 4.6 0 3.8 -2.4 4.8 -3.5 1.4 -0.7 -2.2 -2 -2.6 -3.1 -0.8 -0.4 0.7 0.2 1.8 1.4 2.6 1.2 0.8 2.2 2 2.2 2.8 0 0.7 1.6 3 3.5 5.1 3.3 3.6 3.5 4.2 3.5 10.9 0 5.8 -0.4 7.4 -2 8.9 -1.2 1.1 -2 3.1 -2 5.2 0 2.1 -0.6 3.6 -1.5 3.9 -1.1 0.5 -1.5 2.2 -1.5 6.9 0 4.7 0.4 6.4 1.5 6.9 2 0.7 2.1 12.1 0.1 13.3 -1 0.6 -1.5 3.3 -1.7 8.8 -0.4 6.8 -0.2 8 1.3 8.3 1.3 0.2 1.7 -0.5 2 -3.5 0.2 -2.6 0.8 -3.8 1.8 -3.8 1.1 0 1.6 1.4 1.8 5.7 0.3 4.9 0 5.9 -1.8 7 -2.3 1.5 -2.6 5.4 -0.6 8.3 0.7 1.1 1.6 6.2 2 11.4 0.4 5.2 1.3 10.6 2.1 12.2 0.8 1.5 1.7 5.4 2 8.6 1.1 10.3 1.1 10.2 5 9.6 3 -0.5 3.6 -0.2 4.5 2.1 1 2.8 -0.2 7.6 -2 7.6 -1.7 0 -1.1 5.3 1 8.8 1.5 2.5 1.9 4.2 1.4 7.2 -0.7 4 1.7 12.9 4.3 16.1 0.7 0.8 1.3 2.8 1.3 4.4 0 1.5 1.4 5 3.1 7.6 2.4 3.8 3 5.7 2.7 9 -0.3 3.9 -2.6 6.9 -2.9 3.7z m-28.9 -145.1 c0 -6.8 -0.4 -7.9 -2.6 -7 -1.7 0.6 -1.9 8.4 -0.4 11.4 1.9 3.5 3 2 3 -4.4z m-4 -16.3 c0 -2.2 0.6 -3.7 1.5 -4 0.9 -0.4 1.5 -1.9 1.5 -4 0 -2.2 0.7 -4 2 -5.1 1.7 -1.5 2 -3 2 -9 0 -5.9 -0.4 -7.8 -2.4 -10.7 -3.4 -5.1 -4.6 -3.1 -4.6 8.1 0 6.4 -0.5 10.1 -1.4 11.6 -1.6 2.4 -3.2 14.9 -2.2 16.6 1.3 2.1 3.6 -0.1 3.6 -3.5z m4.2 -128.7 c-3.4 -3.3 -4.5 -1 -1.5 3 2.7 3.5 2.8 3.5 3.1 1.3 0.2 -1.3 -0.5 -3.1 -1.6 -4.3z"/>
  <path d="M376.6 400.2 c-0.3 -0.3 -0.6 -1.8 -0.6 -3.3 0 -3.5 5.2 -9.3 6.9 -7.6 1.6 1.6 1.4 4.7 -0.4 4.7 -1.4 0 -2 1.7 -1.6 4.6 0.1 1.2 -3.4 2.6 -4.3 1.6z"/>
  <path d="M306 390.6 c0 -2.6 -0.6 -4.8 -1.5 -5.6 -2.3 -1.9 -1.8 -3 1.4 -3 3.4 0 4.1 1.4 4.1 8.1 0 4.2 -0.3 4.9 -2 4.9 -1.7 0 -2 -0.7 -2 -4.4z"/>
  <path d="M168.2 391.8 c-0.7 -0.7 -1.2 -2 -1.2 -3 0 -1 -0.9 -3.5 -2 -5.5 -1.3 -2.5 -2 -5.7 -2 -9.8 -0.1 -3.3 -0.7 -7.8 -1.5 -10 -0.8 -2.2 -1.5 -5.5 -1.5 -7.2 0 -2.7 0.4 -3.3 2.1 -3.3 1.8 0 2 0.5 1.8 4 -0.3 3.2 0.1 4.3 2 5.6 1.7 1.3 2.2 2.5 2 5.3 -0.3 5.3 -0.1 6.1 1.7 6.1 1.4 0 1.6 1.2 1.1 9.1 -0.4 5 -0.8 9.3 -1 9.5 -0.2 0.2 -0.9 -0.2 -1.5 -0.8z"/>
  <path d="M196 385.5 c0 -3.2 0.2 -3.5 3 -3.5 3.3 0 3.8 1.1 1.5 3 -0.8 0.7 -1.5 1.9 -1.5 2.6 0 0.8 -0.7 1.4 -1.5 1.4 -1 0 -1.5 -1.1 -1.5 -3.5z"/>
  <path d="M382.5 385.7 c-1.9 -2.8 -1.9 -3 0.9 -7.1 1.7 -2.5 2.5 -5.5 3 -11.3 0.9 -9.6 2.2 -14.8 4.7 -18.2 1.2 -1.6 2.1 -5.1 2.5 -9.1 0.3 -3.6 1.2 -8.4 2 -10.8 0.8 -2.3 1.4 -5.9 1.4 -7.9 0 -2 0.7 -4.5 1.7 -5.5 1.5 -1.7 1.5 -2 -0.2 -5.2 -1.6 -2.9 -1.7 -3.9 -0.7 -6 0.6 -1.4 1.6 -2.6 2.2 -2.6 0.6 0 1 -3.3 1 -8.4 l0 -8.4 3 -1.1 c2.9 -1 4 -3.4 2 -4.6 -0.6 -0.3 -1 -2.5 -0.9 -4.8 0 -2.3 -0.2 -7.7 -0.4 -12 -0.4 -6.5 -0.2 -8.1 1.4 -10.1 1.3 -1.6 1.9 -4 1.9 -7.4 0 -3.2 0.5 -5.4 1.5 -6.2 1.2 -1 1.5 -3.8 1.5 -13.5 0 -9.7 -0.3 -12.5 -1.5 -13.5 -1.3 -1 -1.5 -5 -1.5 -24.5 0 -21.8 -0.1 -23.3 -2 -25.5 -2.6 -3 -2.5 -5.8 0.1 -8.7 l2.2 -2.2 -3.7 -4.5 c-2 -2.4 -3.6 -4.9 -3.6 -5.5 0 -1.7 2.7 -1.3 3.4 0.4 0.3 0.8 1.2 1.5 2.1 1.5 1.2 0 1.5 -1.2 1.5 -5.7 0 -3.3 0.6 -6.3 1.4 -7.2 1.7 -2 2.7 -9.4 1.5 -11.2 -0.8 -1.1 -1.8 -0.5 -4.7 2.7 -2 2.3 -4.7 4.5 -5.9 4.8 -1.1 0.4 -2.4 1.3 -2.7 2.1 -0.3 0.8 -1.7 1.5 -3 1.5 -2.1 0 -2.6 0.6 -3.2 3.7 -0.6 3.1 -0.4 3.9 1.5 5.1 2.2 1.5 2.8 5.5 1.2 8.1 -1.4 2.2 -4.1 -0.5 -4.1 -4.1 0 -2.5 -0.4 -2.9 -2.2 -2.6 -2.1 0.3 -2.3 0.8 -2.3 6.5 0 7.2 -0.8 8.7 -2.4 4.2 -1.5 -4.4 -1.4 -8.4 0.4 -9.9 0.8 -0.7 1.7 -2.7 2.1 -4.6 0.3 -1.8 1.2 -3.8 2 -4.5 0.8 -0.6 1.4 -1.6 1.4 -2.2 0 -0.5 1.6 -2.9 3.5 -5.3 1.9 -2.3 3.5 -4.9 3.5 -5.7 0 -2.6 1.2 -4.7 2.6 -4.7 0.7 0 2.1 -1.1 2.9 -2.4 l1.6 -2.4 34.4 -0.1 c31.6 0 34.4 0.1 34.8 1.7 0.4 1.5 0.5 1.5 0.6 0.1 0.1 -2.2 4 -3.2 4.8 -1.3 0.7 1.8 -0.4 4.7 -1.6 4 -0.5 -0.3 -2.1 1.3 -3.7 3.6 -1.6 2.3 -3.7 5 -4.6 5.9 -0.9 1 -2.5 3 -3.5 4.6 -0.9 1.5 -2.3 3.2 -3 3.6 -0.7 0.4 -1.3 1.2 -1.3 1.7 0 0.6 -0.9 1.9 -2 3 l-2 2 0 -3.5 c0 -2.3 0.5 -3.5 1.4 -3.5 0.7 0 1.6 -1.3 2 -3 0.5 -2.5 1 -3 3.6 -3 2.7 0 3 -0.3 3 -2.9 0 -3.9 0.9 -6.1 2.6 -6.1 0.8 0 1.4 -0.7 1.4 -1.5 0 -1.3 -3 -1.5 -21.1 -1.5 -18.4 0 -21 0.2 -19.9 1.5 0.6 0.8 1.1 3.1 1 5.2 -0.2 2.1 -0.2 11.6 -0.1 21.1 l0.1 17.2 2.5 1 c2.2 0.8 2.5 1.6 2.5 5.5 0 3.1 -0.5 4.7 -1.5 5.1 -0.8 0.4 -1.5 1.1 -1.5 1.8 0 0.6 -0.8 2.5 -1.7 4.1 -1.3 2.3 -1.9 6.7 -2.4 19 -0.8 18.1 -1.8 24.7 -4.2 27.3 -2.1 2.3 -1.3 3.2 2.5 3.2 3.2 0 3.7 2.2 1.3 5.4 -0.8 1.1 -1.5 4 -1.5 6.4 0 4.5 -1.4 8.2 -3 8.2 -0.6 0 -1 -2.3 -1 -5.1 l0 -5.2 -1.9 2.4 c-1.2 1.6 -2 4.7 -2.3 9.7 -0.3 4 -1.1 7.9 -1.7 8.5 -1.6 1.6 -1.4 6.7 0.3 6.7 3.1 0 3.5 6.1 0.6 9.7 -1.1 1.4 -1.7 3 -1.4 3.5 0.3 0.5 -0.3 1.2 -1.5 1.5 -2.3 0.6 -2.9 2.3 -0.7 2.3 2.3 0 2.6 3.8 0.5 6.4 -1.5 1.9 -1.9 4.1 -1.9 10 0 6.1 -0.3 7.6 -1.5 7.6 -0.8 0 -1.5 0.9 -1.5 1.9 0 1.1 -0.6 2.6 -1.3 3.3 -1.8 1.8 -4.7 11.2 -3.6 11.6 1.6 0.6 0.9 3.4 -1.3 5.2 -1.9 1.5 -2.2 2.6 -2 9.3 0.1 6.5 -0.1 7.5 -1.7 8 -1.5 0.4 -1.8 1.4 -1.6 7.1 0.2 4.8 -0.1 6.8 -1.1 7.4 -0.9 0.5 -1.5 2.7 -1.5 6.2 -0.1 4.1 -0.6 5.8 -2 6.8 -1.2 0.9 -1.9 2.5 -1.9 4.8 0 2.4 -0.5 3.4 -1.5 3.4 -0.8 0 -1.4 0.3 -1.4 0.8 0.1 0.4 0.1 2.3 0 4.3 -0.1 4.5 -3.2 6 -5.6 2.6z m32.2 -180.6 c0.3 -1.1 1.1 -2.2 1.9 -2.5 1.9 -0.7 1.8 -3.6 -0.1 -3.6 -0.8 0 -1.5 0.7 -1.5 1.5 0 0.9 -0.7 1.8 -1.5 2.1 -1.7 0.7 -2.1 4.4 -0.4 4.4 0.6 0 1.3 -0.9 1.6 -1.9z m0.3 -13.7 c0 -1.4 -2.1 -1.9 -3.3 -0.7 -0.9 0.9 1.3 3.4 2.4 2.7 0.5 -0.3 0.9 -1.2 0.9 -2z m2.8 -11.1 c-0.4 -5.2 -2.8 -5.6 -2.8 -0.4 0 3 0.4 4.1 1.6 4.1 1.1 0 1.4 -0.9 1.2 -3.7z"/>
  <path d="M321 378.5 c0 -0.8 -0.4 -1.5 -1 -1.5 -0.5 0 -1 -2.5 -1 -5.7 0 -5.5 0 -5.6 2 -3.8 1.2 1.1 2 3.1 2 5 0 2 0.6 3.5 1.5 3.9 2.5 0.9 1.8 3.6 -1 3.6 -1.6 0 -2.5 -0.6 -2.5 -1.5z"/>
  <path d="M202 367.7 c0 -5.8 0.4 -9.7 1 -9.7 0.6 0 1 -0.9 1 -2 0 -1.5 0.7 -2 2.5 -2 2.8 0 3.5 2.7 1 3.6 -1.2 0.5 -1.5 2.4 -1.5 8.4 0 6.4 -0.3 8 -2 9.5 -2 1.8 -2 1.7 -2 -7.8z"/>
  <path d="M300.8 370.6 c-1.2 -1.2 -1.8 -3.3 -1.8 -6.5 0 -3.1 -0.5 -5.3 -1.5 -6.1 -0.8 -0.7 -1.5 -2.1 -1.5 -3.1 0 -1.1 0.7 -1.9 1.5 -1.9 1 0 1.5 -1 1.5 -3 0 -2.8 0.3 -3 3.5 -3 3.4 0 3.5 0.1 3.5 4 0 3.1 -0.4 4 -1.7 4 -1.6 0 -1.8 0.8 -1.5 5.8 0.2 3.3 0.2 7.2 0 8.7 -0.3 2.7 -0.4 2.8 -2 1.1z"/>
  <path d="M186 360.4 c0 -0.3 0.7 -1.2 1.5 -2 0.9 -0.9 1.5 -3.4 1.5 -5.9 0 -5.3 0.8 -7.5 2.6 -7.5 1.1 0 1.4 1.6 1.4 6.4 0 8.3 -0.6 9.6 -4.1 9.6 -1.6 0 -2.9 -0.3 -2.9 -0.6z"/>
  <path d="M315 354.5 l0 -3.5 2 2 c1.1 1.1 2 2.7 2 3.5 0 0.8 -0.9 1.5 -2 1.5 -1.6 0 -2 -0.7 -2 -3.5z"/>
  <path d="M311.1 348.3 c-1.5 -1.6 -3 -7.8 -3.1 -12.5 l0 -2.8 2 2 c1.1 1.1 2 3.1 2 4.4 0 1.3 0.9 3.5 2 4.9 1.1 1.4 2 3.2 2 4.1 0 2 -3.1 2 -4.9 -0.1z"/>
  <path d="M156.7 344.3 c-1.1 -1.1 -0.8 -17.1 0.3 -17.8 4 -2.5 5.9 12.5 2.2 16.5 -1 1.1 -2.2 1.7 -2.5 1.3z"/>
  <path d="M209 340 l0 -4 -4 0 -4 0 0 -4.6 c0 -2.5 0.5 -6.5 1.1 -9 1.1 -4.4 1.2 -4.4 5.5 -4.4 l4.4 0 0 -6.3 c0 -3.5 0.3 -6.7 0.7 -7.1 0.4 -0.3 0.6 -2.9 0.4 -5.6 -0.2 -4.9 -0.2 -5 2.8 -5 2.3 0 3 -0.5 3.3 -2.2 0.2 -1.8 1.1 -2.4 3.6 -2.6 2.8 -0.3 3.2 0 3.2 2.1 0 1.4 -0.7 3 -1.5 3.7 -0.8 0.7 -1.5 2.8 -1.5 4.6 0 2.4 -0.5 3.4 -1.5 3.4 -0.8 0 -1.5 0.5 -1.5 1 0 1.9 -0.3 2.5 -1.9 3.7 -1 0.8 -1.2 1.2 -0.3 1.3 1.8 0 1.5 4 -0.3 4 -0.9 0 -1.5 0.6 -1.4 1.3 0.4 3.3 -0.2 4.7 -2.1 4.7 -1.6 0 -2 0.7 -2 3.5 0 2.8 0.4 3.5 2 3.5 2.4 0 2.6 2.6 0.4 5.1 -1.3 1.4 -2.1 5.4 -2.3 11.7 -0.1 0.6 -0.8 1.2 -1.6 1.2 -1.1 0 -1.5 -1.1 -1.5 -4z"/>
  <path d="M294.8 340.4 c-1 -1.9 -1.8 -4.1 -1.8 -4.9 0 -0.7 0.8 -1.6 1.8 -1.8 1.6 -0.4 1.6 -0.5 0 -0.6 -1 0 -1.8 -0.8 -1.8 -1.6 0 -2.5 -0.1 -2.9 -2.1 -5.7 -2.5 -3.5 -2.4 -3.8 1.1 -3.8 1.7 0 3 0.5 3 1 0 0.6 1.6 1 3.5 1 2.4 0 3.5 -0.5 3.5 -1.5 0 -0.8 0.7 -1.5 1.5 -1.5 0.8 0 1.5 0.6 1.5 1.4 0 0.7 0.9 2.5 2 3.9 2.6 3.3 2.5 3.7 -1 3.7 -2.5 0 -3 0.4 -3 2.5 0 2 -0.5 2.5 -2.4 2.5 -2.2 0 -2.3 0.3 -1.8 4.5 0.6 5.6 -1.5 6.1 -4 0.9z"/>
  <path d="M344 336.8 c0 -5.8 0.4 -8 1.8 -9.6 1.3 -1.4 1.9 -4 2 -8.8 0.3 -7.3 0.8 -8.7 2.2 -6.4 1.3 2.2 0.4 13.5 -1.4 17.2 -0.9 1.7 -1.6 5.2 -1.6 7.8 0 3 -0.6 5.2 -1.5 6 -1.3 1.1 -1.5 0.3 -1.5 -6.2z"/>
  <path d="M195.8 332.5 c0.3 -2.6 0.9 -3.5 2.3 -3.5 1.5 0 1.9 0.7 1.9 3.5 0 3 -0.3 3.5 -2.3 3.5 -2 0 -2.3 -0.4 -1.9 -3.5z"/>
  <path d="M153 314.5 c0 -4.9 0.3 -6.5 1.4 -6.5 2.6 0 3.6 2.5 2.9 7.8 -0.5 4.2 -0.9 5.2 -2.4 5.2 -1.7 0 -1.9 -0.8 -1.9 -6.5z"/>
  <path d="M289 316.6 c0 -1.3 -0.7 -2.9 -1.5 -3.6 -0.8 -0.7 -1.5 -2.6 -1.5 -4.2 0 -1.7 -0.8 -4.2 -1.9 -5.6 -1.2 -1.8 -1.9 -4.6 -2 -8.2 0 -3.7 -0.6 -5.9 -1.6 -6.6 -2.7 -2 -1.8 -4.4 1.5 -4.4 1.7 0 3 -0.4 3 -1 0 -1.7 2.7 -1.1 3.4 0.8 1.5 3.9 3.2 6.2 4.8 6.8 2.2 0.7 2.4 3 0.3 3.8 -1 0.3 -1.5 1.9 -1.5 4.6 0 2.9 -0.4 4 -1.5 4 -2.1 0 -1.9 2.3 0.5 6.2 2.7 4.5 2.7 9.8 0 9.8 -1.4 0 -2 -0.7 -2 -2.4z"/>
  <path d="M203 312.4 c0 -0.9 0.9 -2.7 2 -4.1 1.1 -1.4 2 -3.2 2 -3.9 0 -0.8 0.7 -1.4 1.5 -1.4 1 0 1.5 1.1 1.5 3.5 0 2.4 -0.5 3.5 -1.5 3.5 -0.8 0 -1.5 0.9 -1.5 2 0 1.3 -0.7 2 -2 2 -1.2 0 -2 -0.7 -2 -1.6z"/>
  <path d="M295.6 312.4 c-0.3 -0.9 -0.6 -2.9 -0.6 -4.6 0 -2.3 0.4 -2.9 1.8 -2.6 0.9 0.2 1.6 0.9 1.5 1.6 -0.2 0.6 0.6 1.6 1.7 2.2 1.1 0.6 2 2 2 3 0 1.5 -0.7 2 -2.9 2 -1.7 0 -3.1 -0.6 -3.5 -1.6z"/>
  <path d="M351 298.5 c0 -7.6 0.4 -10.2 1.6 -11.6 1 -1.1 1.7 -4 1.9 -7.3 0.3 -5.9 1.1 -8 2.5 -7.1 1.4 0.9 0.9 7.5 -1.1 13.5 -1.1 3.2 -1.9 8.5 -1.9 12.6 0 5.1 -0.4 7.5 -1.5 8.4 -1.3 1.1 -1.5 0 -1.5 -8.5z"/>
  <path d="M390.8 301.8 c-0.7 -1.9 0.2 -3.8 1.9 -3.8 0.9 0 1.3 0.8 1.1 2.2 -0.3 2.5 -2.3 3.5 -3 1.6z"/>
  <path d="M149.3 288.4 c-0.8 -2.2 0.5 -4.4 2.7 -4.4 2.8 0 2.8 4.6 -0.1 5.3 -1.2 0.3 -2.2 0 -2.6 -0.9z"/>
  <path d="M215.7 285.3 c0.9 -1.6 2.1 -3.2 2.7 -3.8 0.6 -0.5 2.4 -2.9 4 -5.2 1.9 -2.9 3.6 -4.3 5.1 -4.3 1.4 0 2.5 -0.7 2.8 -2 0.9 -3.4 2.7 -2.2 2.7 1.9 0 2.2 -0.6 4.4 -1.5 5.1 -0.8 0.7 -1.5 2.2 -1.5 3.4 0 1.2 -0.9 2.7 -2 3.4 -1.1 0.7 -2 1.9 -2 2.7 0 2.2 -4 1.9 -4 -0.2 -0.1 -1.7 -0.1 -1.7 -1.4 0 -0.7 0.9 -2.5 1.7 -4 1.7 -2.6 0 -2.6 0 -0.9 -2.7z"/>
  <path d="M277.5 279 c-1.7 -3.3 -2 -6 -0.5 -6 0.6 0 1 0.4 1 0.8 0 0.5 1.6 1.6 3.5 2.5 3.6 1.7 4.7 3.7 2 3.7 -0.8 0 -1.5 0.5 -1.5 1 0 2.2 -3 0.8 -4.5 -2z"/>
  <path d="M146.6 271.2 c-1 -0.9 -0.7 -8.2 0.3 -8.2 2.8 0 4.1 1.5 4.1 4.5 0 2.4 -0.5 3.4 -1.9 3.8 -1.1 0.3 -2.2 0.2 -2.5 -0.1z"/>
  <path d="M270 268.5 c-1.6 -2.9 -0.6 -5.8 1.7 -5.3 2.3 0.4 2.9 4.4 1 6.2 -1.2 1.3 -1.6 1.2 -2.7 -0.9z"/>
  <path d="M237.4 261.6 c-0.4 -1 -0.2 -2.2 0.4 -2.8 0.8 -0.8 1.3 -0.7 1.8 0.6 0.4 1 0.2 2.2 -0.4 2.8 -0.8 0.8 -1.3 0.7 -1.8 -0.6z"/>
  <path d="M262.3 261.5 c-2 -1.5 -2.1 -1.3 3.2 -3 1 -0.3 1.5 0.2 1.5 1.4 0 2.5 -2.4 3.3 -4.7 1.6z"/>
  <path d="M143.2 252.1 c-1.8 -5.8 -1.6 -7.3 1.1 -6.9 1.9 0.3 2.2 1 2.5 5.6 0.4 6.4 -1.9 7.3 -3.6 1.3z"/>
  <path d="M358.7 253.4 c-1.3 -1.3 -0.7 -5.7 1 -7.6 1 -1.2 1.6 -3.4 1.5 -6.6 -0.1 -4.6 1.8 -9.2 3.8 -9.2 1.5 0 1.1 4.2 -0.5 6.4 -0.8 1.1 -1.5 3.8 -1.6 6 -0.1 4.5 -3 12.2 -4.2 11z"/>
  <path d="M139.7 234.4 c-0.4 -0.4 -0.7 -2.3 -0.7 -4.1 0 -3 0.3 -3.4 2.3 -3.1 2.6 0.4 3.9 5.8 1.3 5.8 -0.8 0 -1.6 0.5 -1.8 1.1 -0.2 0.5 -0.7 0.7 -1.1 0.3z"/>
  <path d="M365 216.5 c0 -4.1 0.3 -5.6 1.3 -5.2 0.7 0.2 1.2 2.2 1.2 5.2 0 3 -0.5 5 -1.2 5.3 -1 0.3 -1.3 -1.2 -1.3 -5.3z"/>
  <path d="M136.2 216.7 c-2.2 -6.1 -1.4 -9.4 1.9 -7.6 1.5 0.7 1.9 2.1 1.9 5.9 0 5.9 -2 6.8 -3.8 1.7z"/>
  <path d="M429 205.5 c0 -3.3 0.4 -4.5 1.5 -4.5 1 0 1.5 -1.1 1.5 -3.5 0 -2.8 0.4 -3.5 2 -3.5 2.4 0 2.7 3.2 0.5 5 -0.8 0.7 -1.5 2.4 -1.5 3.9 0 4.1 -1.1 7.1 -2.6 7.1 -1 0 -1.4 -1.3 -1.4 -4.5z"/>
  <path d="M368.6 198.3 c-1.1 -1.2 -0.6 -4.6 1 -6.4 1.3 -1.5 2.1 -4.3 2.3 -8.6 0.2 -2.9 1.9 -1 2.5 2.8 0.6 3.5 0.2 4.8 -2.2 8.5 -1.6 2.4 -3.2 4.1 -3.6 3.7z"/>
  <path d="M115.4 196.6 c-0.8 -2.2 -0.1 -5.9 1.4 -6.4 0.8 -0.2 1.2 0.9 1.2 3.7 0 4 -1.5 5.5 -2.6 2.7z"/>
  <path d="M129.6 188.3 c-0.3 -0.4 -0.6 -2 -0.6 -3.7 0 -7.2 -2.6 -10.4 -3.2 -3.9 -0.3 4.1 -2.8 5.9 -2.8 2 0 -1.3 0.4 -3.7 1 -5.3 0.5 -1.6 1.1 -5.4 1.4 -8.4 0.3 -3 0.5 -5.6 0.5 -5.8 0.1 -0.1 1 0.2 2.1 0.8 1.5 0.8 2 2.1 2 5.5 0 2.9 -0.4 4.5 -1.2 4.5 -0.7 0 -0.1 1 1.5 2.1 2.3 1.8 2.7 2.8 2.7 6.9 0 3.2 -0.5 5 -1.4 5.3 -0.8 0.3 -1.7 0.3 -2 0z"/>
  <path d="M375 171.7 c0 -6.5 0.3 -7.7 1.6 -7.7 1.4 0 1.6 0.9 1.1 6.6 -0.7 9.9 -2.7 10.7 -2.7 1.1z"/>
  <path d="M102.7 170.4 c-1 -1 -0.9 -7.2 0.2 -7.8 1.5 -1 3.3 2.1 2.9 5 -0.3 2.7 -1.8 4.1 -3.1 2.8z"/>
  <path d="M60.8 167.8 c-1 -1 -1.8 -3.1 -1.8 -4.7 0 -1.6 -0.7 -3.7 -1.6 -4.5 -0.8 -0.9 -1.8 -3.2 -2.1 -5.2 -0.3 -2 -1.2 -3.8 -1.9 -4.1 -2.2 -0.8 -1.7 -4.3 0.6 -4.3 1.3 0 2 0.7 2 2 0 1.1 0.7 2 1.5 2 1 0 1.5 1.1 1.5 3.5 0 2.3 0.5 3.5 1.4 3.5 0.9 0 1.6 2 2.1 6.6 0.4 3.6 0.5 6.7 0.3 6.8 -0.1 0.2 -1.1 -0.6 -2 -1.6z"/>
  <path d="M442 168.3 c0 -5.4 1.4 -11.3 2.6 -11.3 1 0 1.4 -1.3 1.4 -4 0 -3.5 0.3 -4 2.3 -4 2.1 0 2.3 0.4 1.9 3.8 -0.3 2 -1.3 4.8 -2.3 6.1 -1.1 1.3 -1.9 3.5 -1.9 4.8 0 1.3 -0.9 3.3 -2 4.5 -2 2.2 -2 2.2 -2 0.1z"/>
  <path d="M105.4 155.9 c-0.3 -0.6 -0.2 -1.5 0.4 -2.1 1.3 -1.3 3.2 -0.2 3.2 1.8 0 1.6 -2.6 1.9 -3.6 0.3z"/>
  <path d="M99 151 c0 -1.1 0.7 -2 1.5 -2 0.8 0 1.5 0.9 1.5 2 0 1.1 -0.7 2 -1.5 2 -0.8 0 -1.5 -0.9 -1.5 -2z"/>
  <path d="M452 144.8 c0 -3.4 0.3 -3.8 2.5 -3.8 3.1 0 3.1 0.9 0 4.6 l-2.5 2.9 0 -3.7z"/>
  <path d="M50.5 140.2 c-0.6 -0.4 -2.3 -2.6 -3.9 -4.9 -1.6 -2.4 -3.2 -4.3 -3.7 -4.3 -0.4 0 -1 -0.8 -1.3 -1.8 -0.3 -0.9 -2.8 -4.2 -5.6 -7.2 -2.7 -3 -5 -5.8 -5 -6.2 0 -0.5 1.3 -0.8 3 -0.8 3.4 0 5 2.3 5 6.9 0 2.7 0.3 3.1 2.9 3.1 3.1 0 4.1 1.4 4.1 6.1 0 2.6 0.4 2.9 3 2.9 2.8 0 3 0.3 3 3.5 0 3.8 0 3.8 -1.5 2.7z"/>
  <path d="M33 111.1 c0 -1.2 -0.9 -2.1 -2.5 -2.5 -2.8 -0.7 -3.4 -3.1 -1 -4 2.2 -0.8 4.2 0.2 4.8 2.5 0.4 1.4 1.4 1.9 3.6 1.9 2.4 0 3.1 0.4 3.1 2 0 1.7 -0.7 2 -4 2 -3.3 0 -4 -0.4 -4 -1.9z"/>
 </g>
 <g fill="#0980bb">
  <path d="M162 446 c0 -2.6 4.4 -6.6 8.8 -8.1 2.4 -0.8 3.4 -1.8 3.9 -4 0.3 -1.5 1.5 -3.5 2.8 -4.3 2.9 -1.9 4.1 -10.2 2 -14.3 -0.8 -1.6 -1.7 -5.6 -2.1 -8.8 -0.4 -3.3 -1.6 -7.1 -2.6 -8.6 -2.3 -3.1 -1.7 -6.7 1.8 -10 1.3 -1.2 2.4 -3 2.4 -3.9 0 -0.8 0.9 -2.3 2 -3.3 1.1 -0.9 2 -2.4 2 -3.2 0 -0.8 0.7 -1.5 1.5 -1.5 1 0 1.5 1.1 1.5 3.5 0 2.8 -0.4 3.5 -2 3.5 -1.7 0 -2 0.7 -2 3.9 0 2.3 -0.6 4.4 -1.5 5.1 -1.1 0.9 -1.3 1.6 -0.5 2.4 0.5 0.5 1 2.1 1 3.4 0 1.3 0.6 3.8 1.4 5.5 0.8 1.8 1.6 4.3 1.8 5.7 0.3 2.2 0.7 2.5 3.8 2.2 3.1 -0.2 3.5 0.1 3.6 2.2 0.1 1.4 -0.4 2.7 -1.2 3 -0.8 0.3 -1.4 1.2 -1.4 2.1 0 0.8 -0.4 1.5 -0.8 1.5 -1.5 0 -3.2 4.9 -3.2 9.2 0 4.7 -3.4 9.5 -6.5 9.1 -1.1 -0.2 -1.4 0 -0.7 0.3 0.6 0.3 1.2 1.1 1.2 1.7 0 1.7 -3.8 3.9 -4.5 2.7 -1.1 -1.8 -2.2 -1 -2.8 2 -0.7 3 -3.1 4.1 -4 1.8 -0.3 -1 -0.9 -1 -2.6 0 -2.8 1.6 -3.1 1.5 -3.1 -0.8z"/>
  <path d="M336.8 445.5 c-1 -1.3 -2.8 -2.5 -4 -2.7 -1.5 -0.2 -2.4 -1.1 -2.6 -2.6 -0.3 -1.8 -0.8 -2.1 -2.6 -1.6 -2 0.5 -2.4 0.1 -3 -2.9 -0.3 -1.9 -1.5 -4.2 -2.6 -5.2 -1.1 -1 -2 -2.4 -2 -3.2 0 -0.7 -0.7 -1.6 -1.5 -1.9 -0.9 -0.4 -1.5 -1.9 -1.5 -3.9 0 -1.9 -0.8 -3.9 -2 -5 -1.1 -1 -2 -3.1 -2 -4.7 0 -1.6 -0.7 -3.6 -1.5 -4.4 -2.2 -2.2 -1.8 -3.4 1 -3.4 1.6 0 2.5 0.6 2.5 1.5 0 0.8 0.5 1.5 1 1.5 0.6 0 1 1.5 1 3.3 0 2.4 0.3 2.8 1 1.7 0.5 -0.8 1 -2.4 1 -3.6 0 -1.2 1.3 -4.6 3 -7.7 2.7 -5.1 2.9 -6.2 2.3 -11.7 -0.3 -3.3 -0.3 -6 0.1 -6 0.3 0 1.6 1 2.8 2.2 2.9 2.9 3.8 12.6 1.5 16.2 -0.9 1.3 -2.8 5.7 -4.1 9.6 l-2.6 7.3 2.1 4.6 c1.1 2.5 2.8 5.5 3.8 6.6 1 1.1 2.1 3.2 2.5 4.7 0.5 2.1 1.4 2.9 4.2 3.4 3.8 0.7 12.9 8.4 9.9 8.4 -0.8 0 -1.5 0.5 -1.5 1 0 2 -4.5 0.9 -6.2 -1.5z"/>
  <path d="M370.1 423.3 c-0.1 -0.7 -0.8 -1.3 -1.6 -1.3 -2.1 0 -1.9 -1.3 0.5 -3.5 1.1 -1 2 -1.3 2 -0.7 0 0.6 -0.5 1.4 -1.1 1.8 -0.8 0.5 -0.8 0.9 0.1 1.4 0.7 0.4 1 1.4 0.7 2.1 -0.4 1 -0.6 1 -0.6 0.2z"/>
  <path d="M134 417.5 c0 -0.8 0.5 -1.5 1 -1.5 0.6 0 1 0.7 1 1.5 0 0.8 -0.4 1.5 -1 1.5 -0.5 0 -1 -0.7 -1 -1.5z"/>
  <path d="M128.1 407.5 c0 -3.5 0.1 -3.7 1 -1.7 0.6 1.5 0.5 3 -0.1 4 -0.7 1.3 -0.9 0.8 -0.9 -2.3z"/>
  <path d="M373.6 409.2 c-0.2 -0.4 -0.1 -1.4 0.4 -2.1 1.1 -1.9 4.1 -0.6 3.4 1.4 -0.6 1.6 -2.9 2 -3.8 0.7z"/>
  <path d="M123.1 398.6 c-2.3 -4.7 -2.5 -5.6 -1.2 -5.6 0.8 0 6.1 7.1 6.1 8.2 0 0.3 -0.6 0.8 -1.4 1.1 -1 0.4 -2.2 -0.8 -3.5 -3.7z"/>
  <path d="M192 399.5 c0 -2.4 0.5 -3.5 1.5 -3.5 1.2 0 1.5 -1.4 1.5 -6.5 l0 -6.5 3.8 0 c3.3 0.1 3.5 0.2 2 1.4 -1.3 1 -1.8 2.8 -1.8 6.7 0 4.2 -0.5 5.8 -2 7.2 -1.1 0.9 -2 2.4 -2 3.2 0 0.8 -0.7 1.5 -1.5 1.5 -1 0 -1.5 -1.1 -1.5 -3.5z"/>
  <path d="M307.7 398.2 c-1.5 -1.6 -1.7 -2.9 -1.2 -6.5 0.6 -3.8 0.4 -4.7 -1.6 -6.6 l-2.3 -2.1 2.2 0 c2 0 2.2 -0.5 2.2 -6 0 -4.7 -0.3 -6 -1.5 -6 -0.8 0 -1.5 0.7 -1.5 1.5 0 1.1 -0.5 1 -2.1 -0.6 -1.8 -1.8 -2.2 -3.3 -2 -7.3 0.1 -4 -0.3 -5.7 -1.9 -7.3 -1.6 -1.8 -2 -3.6 -2 -9.6 0 -4.9 -0.5 -8 -1.5 -9.3 -0.8 -1 -1.5 -4 -1.5 -6.6 0 -3.4 -0.6 -5.2 -2.1 -6.6 -1.5 -1.5 -2 -3 -1.8 -6.5 0.2 -2.9 -0.3 -5.4 -1.4 -7.1 -0.9 -1.4 -1.7 -3.9 -1.7 -5.5 0 -1.7 -0.8 -3.5 -1.8 -4.3 -1.8 -1.3 -2.4 -6.9 -0.9 -8.4 0.4 -0.4 0.7 0.2 0.7 1.4 0 1.1 1 2.8 2.3 3.7 2.2 1.5 2.2 1.5 2.7 -2.7 0.4 -3.8 0.8 -4.3 3.3 -4.6 2.4 -0.3 2.7 0 2.7 2.5 0 1.6 0.8 3.9 1.7 5.2 0.9 1.3 1.7 4.3 1.8 6.5 0.3 5.7 0.3 5.6 2 5.6 0.9 0 1.5 0.9 1.5 2.2 0 1.2 0.8 3 1.7 4 1 1.1 1.6 3.2 1.5 4.9 -0.2 1.9 0.5 3.5 1.8 4.6 1.2 1.1 2 3 2 5 0 1.7 0.4 3.4 0.9 3.7 0.5 0.3 1.2 2.1 1.5 4 0.4 1.8 1.6 4.4 2.7 5.7 1.1 1.3 1.8 3.1 1.6 4.1 -0.3 0.9 0.2 2.6 1 3.7 1.3 2 1.2 2.1 -1.4 2.1 l-2.8 0 -0.1 7.4 c-0.1 7.4 -0.1 7.4 2.8 7.8 2.5 0.4 2.8 0.2 2.8 -2.5 0 -2.9 0 -3 2 -1.2 1.1 1 2 3.1 2 4.7 0 1.5 0.9 3.7 2 4.8 1.1 1.1 2 2.7 2 3.5 0 0.8 -0.9 1.5 -2 1.5 -1.1 0 -2 -0.7 -2 -1.5 0 -3.1 -2.9 -1.5 -3.2 1.8 -0.3 3 -0.6 3.2 -4.5 3.5 l-4.2 0.3 -0.3 7.6 c-0.3 7.4 -0.3 7.5 -2.1 5.5z m4.3 -46.9 c-0.1 -2.4 -0.2 -2.6 -1.1 -1 -0.5 0.9 -0.7 2.2 -0.4 2.7 1 1.7 1.5 1.1 1.5 -1.7z m-12.9 -23.6 c-1.3 -1.3 -1.5 0.1 -0.4 3 0.7 1.7 0.8 1.7 1.1 -0.1 0.2 -1 -0.1 -2.3 -0.7 -2.9z"/>
  <path d="M314.2 392.3 c0.3 -3.6 0.5 -3.8 4.1 -4.1 l3.8 -0.3 -0.3 3.8 c-0.3 3.6 -0.5 3.8 -4.1 4.1 l-3.8 0.3 0.3 -3.8z"/>
  <path d="M117.5 387.2 c-0.3 -1.1 -0.5 -2.4 -0.3 -2.8 0.3 -1.2 -1.3 -5.8 -2.3 -6.4 -0.4 -0.3 -1.1 -3.4 -1.5 -6.9 -0.6 -5.2 -0.4 -6.3 0.7 -5.9 0.8 0.3 1.8 2.9 2.4 5.9 0.6 3 1.8 6.5 2.8 7.9 2.1 3 2.2 7.3 0.3 8.9 -1.1 1 -1.6 0.8 -2.1 -0.7z"/>
  <path d="M383.4 383.5 c-0.4 -1.8 -0.1 -3.2 1.2 -4.6 1.7 -1.9 1.9 -1.9 2.5 -0.2 0.4 1 0.8 3 0.8 4.6 0.1 3.7 -3.6 3.9 -4.5 0.2z"/>
  <path d="M166.9 382.3 c-1.3 -3.5 -0.5 -5.3 2 -4.6 1.5 0.4 2.1 1.3 2.1 3.3 0 3.9 -2.8 4.7 -4.1 1.3z"/>
  <path d="M196 377.1 c0 -2.2 0.5 -4.2 1.3 -4.4 0.6 -0.3 -0.5 -0.6 -2.5 -0.6 -3.7 -0.1 -3.8 -0.2 -3.8 -3.6 0 -2.4 0.5 -3.5 1.5 -3.5 1.2 0 1.5 -1.5 1.4 -8.2 0 -4.6 -0.3 -7.7 -0.6 -7 -0.7 1.9 -3 1.4 -3.6 -0.8 -0.3 -1.1 0.3 -3 1.4 -4.4 1 -1.3 1.9 -2.9 1.9 -3.5 0 -1.8 2.8 -1.2 3.3 0.7 0.4 1.3 0.5 1.1 0.6 -0.5 0.1 -1.7 -0.5 -2.3 -1.9 -2.3 -2.4 0 -2.5 -0.8 -0.3 -3.2 0.9 -1.1 1.6 -3.2 1.5 -4.7 -0.1 -1.7 0.6 -3.5 1.8 -4.6 1.2 -1.1 2 -3.1 2 -5 0 -1.8 0.7 -3.8 1.5 -4.5 0.8 -0.7 1.5 -2.3 1.5 -3.5 0 -1.2 0.9 -3.4 2 -4.8 1.1 -1.4 2 -3.6 2 -5 0 -1.4 1.6 -4.6 3.5 -7.1 1.9 -2.6 3.5 -5.6 3.5 -6.8 0 -1.1 1.5 -3.9 3.3 -6.2 1.9 -2.3 4.2 -5.6 5.2 -7.3 1.3 -2.2 2.7 -3.3 4.2 -3.3 1.3 0 2.8 -0.9 3.5 -2 1.7 -2.7 2.8 -2.5 2.8 0.4 0 1.5 -0.7 2.6 -1.7 2.8 -1.4 0.3 -1.7 1.2 -1.5 4.5 0.3 3.7 0.1 4.2 -2 4.5 -2 0.3 -2.2 0.8 -2 4.5 0.3 3.3 0 4.2 -1.4 4.5 -1.5 0.3 -1.8 1.2 -1.5 4.9 0.2 4.3 0 4.7 -2.3 5.3 -1.4 0.3 -2.6 1.2 -2.6 2 0 0.7 -0.7 1.9 -1.5 2.6 -1.3 1 -1.4 3.1 -0.9 12 0.7 10.2 0.6 10.8 -1.2 10.7 -1.7 -0.2 -1.9 0.6 -2.2 6.8 -0.2 3.8 -0.8 7.2 -1.4 7.6 -0.5 0.4 -2 3.2 -3.3 6.3 l-2.3 5.6 2.1 0 c2 0 2 0.1 0.2 1.3 -1.4 1.1 -1.8 2.9 -2 9.1 -0.2 5.4 -0.7 8.2 -1.9 9.5 -0.9 0.9 -1.6 2.5 -1.6 3.4 0 1.2 -0.9 1.7 -3 1.7 -2.8 0 -3 -0.2 -3 -3.9z m6 -8.1 c0 -1.3 -0.7 -2 -2 -2 -1.3 0 -2 0.7 -2 2 0 1.3 0.7 2 2 2 1.3 0 2 -0.7 2 -2z m5.6 -40.1 c1.7 -4.6 1.7 -7.9 0 -7.9 -1.3 0 -3.6 6.7 -3.6 10.5 0 2.7 2.3 1.1 3.6 -2.6z"/>
  <path d="M336.5 376.9 c0.3 -1.9 0.9 -5.6 1.3 -8.3 0.4 -2.8 1.3 -5.1 2.1 -5.4 1.1 -0.4 1.3 0.3 0.6 3.4 -0.4 2.2 -1 5.9 -1.4 8.3 -0.3 2.5 -1.2 4.6 -1.9 4.9 -1 0.3 -1.2 -0.4 -0.7 -2.9z"/>
  <path d="M182.7 372 c-0.3 -1.1 0.3 -3 1.4 -4.4 1 -1.3 1.9 -2.9 1.9 -3.5 0 -0.6 0.7 -1.1 1.5 -1.1 2.2 0 1.9 6 -0.4 8.8 -2.4 2.7 -3.7 2.8 -4.4 0.2z"/>
  <path d="M388 370.8 c0 -3.8 2.7 -10.3 4.4 -10.6 0.9 -0.2 1.6 0.2 1.7 1 0 0.7 0.2 2.7 0.5 4.5 0.3 2.7 0 3.2 -1.9 3.5 -1.5 0.2 -2.1 0.9 -1.9 2.1 0.2 1 -0.3 1.7 -1.3 1.7 -0.9 0 -1.5 -0.9 -1.5 -2.2z"/>
  <path d="M164 367.1 c0 -0.5 -0.3 -1.7 -0.6 -2.6 -0.5 -1.3 -0.2 -1.6 1.7 -1.3 3.2 0.4 4.1 4.8 1 4.8 -1.2 0 -2.1 -0.4 -2.1 -0.9z"/>
  <path d="M188 358 c1.1 -1.1 2 -2.7 2 -3.5 0 -0.8 0.7 -1.5 1.5 -1.5 1 0 1.5 1.1 1.5 3.5 0 3.3 -0.2 3.5 -3.5 3.5 l-3.5 0 2 -2z"/>
  <path d="M341.1 356.3 c-0.1 -2.4 0.4 -4.3 0.9 -4.3 1.2 0 1.2 3.7 0 6.5 -0.7 1.5 -0.9 1 -0.9 -2.2z"/>
  <path d="M391 355.2 c0 -1.1 0.7 -2.5 1.5 -3.2 0.8 -0.7 1.5 -2.7 1.5 -4.5 0 -3.7 0.6 -4.6 2.6 -3.8 1 0.3 1.4 2.2 1.4 5.8 0 4.2 -0.4 5.4 -1.7 5.8 -1 0.2 -2.6 0.8 -3.5 1.2 -1.4 0.5 -1.8 0.2 -1.8 -1.3z"/>
  <path d="M107 347.1 c0 -5 1.2 -6.7 2.4 -3.5 1.1 2.7 0.6 6.1 -0.9 7.4 -1.3 1.1 -1.5 0.6 -1.5 -3.9z"/>
  <path d="M345.3 337 c0 -2.5 0.2 -3.5 0.4 -2.2 0.2 1.2 0.2 3.2 0 4.5 -0.2 1.2 -0.4 0.2 -0.4 -2.3z"/>
  <path d="M105 337.1 c-0.5 -1.1 -1 -3.5 -1 -5.4 0 -2.1 -0.7 -4.1 -2 -5.2 -1.6 -1.5 -2 -2.9 -1.8 -7.3 0.2 -4.1 -0.2 -5.7 -1.5 -6.6 -1.1 -0.9 -1.7 -2.9 -1.8 -6.9 -0.2 -4 -0.7 -6.1 -2 -7.3 -1.5 -1.3 -1.7 -2.6 -1.3 -6.3 0.4 -3.7 0.1 -5.1 -1.6 -6.8 -1.4 -1.6 -2 -3.6 -2 -7.1 0 -3.6 -0.5 -5.4 -1.9 -6.6 -1.7 -1.6 -1.9 -2.7 -1.4 -8.6 0.5 -6 0.3 -7 -1.6 -8.9 -1.8 -1.8 -2.1 -3.3 -2.1 -9.4 0 -5.9 -0.4 -7.7 -1.9 -9.1 -1.4 -1.3 -1.7 -2.6 -1.3 -6.6 0.3 -3.7 0 -5.5 -1.1 -6.8 -0.8 -0.9 -1.8 -3.4 -2.2 -5.4 -0.4 -2.1 -1.3 -4.2 -2.1 -4.9 -0.9 -0.7 -1.4 -3.1 -1.4 -6 0 -3.7 -0.5 -5.4 -2 -6.6 -1.5 -1.3 -2 -3 -2 -6.9 0 -3.4 -0.5 -5.6 -1.5 -6.4 -0.8 -0.7 -1.5 -2.7 -1.5 -4.5 0 -1.9 -0.8 -3.9 -2 -5 -1.2 -1.1 -2 -3.1 -2 -5 0 -1.7 -0.5 -3.6 -1.2 -4.3 -0.9 -0.9 -0.8 -1.2 0.5 -1.2 2.7 0 2 -2 -1.8 -5.6 -2.2 -2 -3.7 -4.5 -3.9 -6.4 -0.2 -1.7 -1.1 -3.9 -2 -4.9 -2 -2.2 -2.1 -5.1 -0.1 -5.1 2.5 0 5.3 3.2 5.8 6.5 0.2 1.7 0.5 0 0.6 -3.7 0.1 -5.2 -0.2 -6.8 -1.3 -6.8 -1.7 0 -2.6 -2.2 -2.6 -6.1 0 -2.6 -0.4 -2.9 -3 -2.9 -2.9 0 -3 -0.1 -3 -5.1 l0 -5.1 4.5 0.4 c2.5 0.2 4.5 0 4.5 -0.4 0 -0.5 -0.4 -0.8 -1 -0.8 -0.5 0 -1 -1.8 -1 -4 l0 -4 4.9 0 c2.8 0 5.3 -0.5 5.6 -1 0.4 -0.6 7.3 -1 17.6 -1 14 0 16.9 0.2 16.9 1.4 0 0.8 1.6 2 3.5 2.7 3.6 1.3 4.7 2.9 2 2.9 -0.8 0 -1.5 0.4 -1.5 0.9 0 2.2 1.4 4.1 3 4.1 1 0 3 1.7 4.5 3.8 1.6 2 3.4 4.2 4.1 4.7 0.6 0.6 1.4 2.9 1.5 5 0.2 2.4 1.1 4.5 2.1 5.3 2.1 1.5 2.4 5.2 0.5 5.2 -2.7 0 -7.4 -7.2 -10.1 -15.5 -1.1 -3.4 -4.5 -6.8 -6.2 -6.1 -1.1 0.4 -1.8 -0.3 -2.6 -2.4 -0.6 -1.8 -2.9 -4.3 -5.4 -6.1 -4.3 -2.9 -4.7 -3 -11.2 -2.2 l-6.7 0.8 -0.5 3.5 c-0.6 4 -4.5 9 -7.2 9 -3.7 0 -1.6 1.9 2.4 2.2 3.8 0.3 4.3 0.6 5.2 3.5 0.7 2.5 0.5 3.8 -0.8 5.8 -2.1 3.2 -2 4.1 0.4 3.7 1.1 -0.2 2.3 0.6 3.1 2 0.6 1.3 1.8 2.7 2.5 3.1 2.1 1.2 2 24.5 -0.1 25.3 -0.9 0.4 -1.5 1.9 -1.5 4 0 2.7 -0.4 3.4 -2 3.4 -1.7 0 -2 0.7 -2 4.8 0 2.6 -0.5 5.3 -1.1 5.9 -0.9 0.9 -0.8 2 0.4 4.5 1 2.2 1.4 4.8 1 7.9 -0.4 3.9 -0.2 5 1.6 6.8 1.2 1.2 2.1 3.4 2.1 5.2 0 1.7 1.1 5 2.5 7.3 2.3 3.9 2.6 5.7 3.1 18.2 0.3 9.1 1 14.9 2 16.8 0.8 1.6 1.4 4.5 1.4 6.6 0 2 0.5 4.1 1.1 4.7 0.7 0.7 1.5 5 1.9 9.7 0.5 4.7 1.5 9.7 2.3 11.3 2.1 3.8 4.6 14.3 5.7 23.3 0.5 4.1 1.6 9.4 2.4 11.8 3.3 9.2 3 18.5 -0.4 12.3z m-27 -159.7 c0 -0.9 -1.3 -3.2 -3 -5 l-3 -3.4 0.7 3.2 c0.3 1.8 1 4.1 1.5 5.1 1.1 2.2 3.8 2.2 3.8 0.1z m-4.8 -20.6 c-0.9 -0.9 -1.2 -0.7 -1.2 1.2 0 1.9 0.3 2.1 1.2 1.2 0.9 -0.9 0.9 -1.5 0 -2.4z"/>
  <path d="M397.6 337.4 c-1.1 -2.8 -0.6 -8.4 0.9 -12 0.8 -2 1.3 -4 1 -4.4 -0.3 -0.4 0.4 -3.4 1.5 -6.6 1.1 -3.3 2.5 -10.4 3.1 -15.9 0.9 -7.1 1.8 -10.7 3.2 -12.5 1.7 -2.2 1.8 -3.5 1.2 -10.2 -0.6 -7 -0.4 -7.9 1.5 -9.8 1.8 -1.8 2.1 -3 1.6 -5.9 -0.4 -2.4 0 -4.7 1 -6.6 0.9 -1.7 1.9 -6.1 2.2 -9.9 0.3 -5 1.2 -7.9 2.8 -10.4 2.7 -4 2.8 -4.1 1.4 -7.8 -0.9 -2.3 -0.7 -3.3 1.1 -5.8 3.1 -4.1 3.9 -9.4 4.5 -27.5 0.5 -12.6 0.9 -16 2.5 -19 1 -2 1.9 -4.1 1.9 -4.7 0 -0.7 0.7 -1.4 1.5 -1.8 2.3 -0.9 1.8 -3.5 -1 -4.6 l-2.5 -1 0 -16.9 c0 -13.8 -0.3 -17.1 -1.5 -18.1 -1.9 -1.6 -1.9 -3.9 0 -6 1.3 -1.5 1.3 -1.9 -0.8 -3.7 -2.7 -2.5 -10.8 -3.6 -13.4 -1.8 -1.1 0.7 -4.1 2 -6.8 2.8 -3.8 1 -5.1 1.9 -5.3 3.5 -0.2 1.2 -1 2.2 -1.7 2.2 -0.8 0 -1.7 0.9 -2 2 -0.7 2.2 -3.5 2.8 -3.5 0.7 0 -0.8 0.9 -2.2 1.9 -3.1 1.1 -1 2.1 -3.2 2.3 -4.9 0.2 -2.3 0.9 -3.3 2.3 -3.5 1.1 -0.2 2.7 -1.3 3.6 -2.4 1.5 -1.9 2.6 -2 20.4 -1.9 10.3 0.1 19.6 0.6 20.6 1.1 1 0.6 2.9 1 4.4 1 l2.6 0 -0.2 9.7 c-0.1 6.5 0.2 9.8 1 10.1 1.7 0.6 1.5 10.2 -0.3 10.2 -1.4 0 -2.9 8 -1.7 9 1 0.9 1 4.3 0 6.2 -1.5 2.8 -2.9 2.1 -2.9 -1.4 0 -3 -0.1 -3.1 -1.4 -1.3 -1.4 2.2 -2.9 13.5 -1.7 13.5 1.4 0 -0.2 6.9 -2 8.6 -1 0.9 -1.9 2.3 -1.9 3.1 0 0.7 -0.4 1.3 -1 1.3 -0.5 0 -1 0.7 -1 1.5 0 0.8 0.5 1.5 1 1.5 1.6 0 1.2 4.6 -0.5 6 -0.8 0.7 -1.5 2.4 -1.5 3.9 0 1.5 -0.7 3.6 -1.5 4.9 -0.9 1.2 -1.9 4.5 -2.2 7.4 -0.3 2.9 -1.3 6.3 -2.1 7.6 -0.9 1.4 -1.5 4.5 -1.4 8.2 0.1 4.6 -0.3 6 -1.4 6 -0.8 0 -1.4 1 -1.5 2.3 0 1.2 -0.3 3.1 -0.5 4.2 -0.3 1.1 -0.5 3.6 -0.4 5.6 0 2.1 -0.6 4.1 -1.5 4.9 -0.8 0.7 -1.5 2.3 -1.5 3.5 0 1.3 -0.6 2.6 -1.2 2.8 -1 0.4 -1 0.6 0 0.6 1.7 0.1 1.6 5.1 -0.2 5.1 -1.7 0 -2.6 4.3 -2 9.1 0.5 3.1 0.2 3.7 -1.6 4.2 -1.5 0.4 -2.1 1.3 -2 2.9 0.1 1.3 0.2 4.2 0.1 6.6 -0.1 3.5 -0.4 4.2 -2.2 4.2 -1.1 0 -1.7 0.5 -1.4 1 0.3 0.6 -0.2 1 -1.2 1 -1.2 0 -1.4 0.3 -0.6 0.8 0.7 0.4 1.5 3.8 1.8 7.5 0.5 5.5 0.3 6.7 -0.9 6.7 -1.8 0 -2.3 1.8 -2.5 8.9 0 3.3 -0.7 6.1 -1.6 7.1 -0.8 0.9 -1.5 2.5 -1.5 3.6 0 1.1 -1 2.4 -2.2 2.9 -2 0.9 -2.1 1.6 -1.9 8.3 0.2 5.8 -0.1 7.2 -1.2 7.2 -0.8 0 -1.8 -0.7 -2.1 -1.6z"/>
  <path d="M347.4 324.6 c0 -1.9 0.4 -3.2 0.8 -3 1 0.7 1 3.5 0 5.1 -0.5 0.8 -0.8 -0.1 -0.8 -2.1z"/>
  <path d="M283.5 289 c-0.3 -1.1 -1.5 -2 -2.5 -2 -1.3 0 -1.9 -1 -2.2 -3.7 -0.6 -5 -0.1 -6.3 2.8 -6.3 1.7 0 2.7 0.8 3.4 2.5 0.5 1.4 1.4 2.5 2 2.5 0.5 0 1 0.9 1 1.9 0 1.1 0.4 2.1 0.9 2.3 0.5 0.2 0.5 1.3 0 2.6 -1 2.8 -4.5 2.9 -5.4 0.2z"/>
  <path d="M354.7 276.7 c-0.3 -0.8 -0.1 -2 0.4 -2.8 0.6 -1 0.9 -0.7 0.9 1.4 0 2.9 -0.5 3.5 -1.3 1.4z"/>
  <path d="M147.1 266.3 c0.1 -1.7 0.3 -2.1 0.6 -1 0.2 0.9 1.1 1.7 1.9 1.7 0.8 0 1.4 0.5 1.4 1 0 0.6 -0.9 1 -2 1 -1.5 0 -2 -0.6 -1.9 -2.7z"/>
  <path d="M269 265.6 c0 -1.9 1.4 -2.8 3.4 -2 2.5 1 1.9 3.4 -0.9 3.4 -1.5 0 -2.5 -0.6 -2.5 -1.4z"/>
  <path d="M237.7 261.4 c-0.8 -0.8 0.1 -2.4 1.4 -2.4 0.5 0 0.9 0.7 0.9 1.5 0 1.5 -1.2 2 -2.3 0.9z"/>
  <path d="M244.5 257 c-0.7 -1.2 0.2 -3 1.6 -3 0.5 0 0.9 0.9 0.9 2 0 2.1 -1.5 2.7 -2.5 1z"/>
  <path d="M137 212 c0 -1.1 0.7 -2 1.5 -2 0.8 0 1.5 0.9 1.5 2 0 1.1 -0.7 2 -1.5 2 -0.8 0 -1.5 -0.9 -1.5 -2z"/>
  <path d="M130 178.9 c0 -2.4 2.3 -2.1 2.8 0.4 0.2 1 -0.3 1.7 -1.2 1.7 -1 0 -1.6 -0.9 -1.6 -2.1z"/>
  <path d="M375 165.9 c0 -1.1 0.5 -1.7 1 -1.4 0.6 0.3 1 1.3 1 2.1 0 0.8 -0.4 1.4 -1 1.4 -0.5 0 -1 -0.9 -1 -2.1z"/>
  <path d="M123 155.9 c0 -3.6 0.2 -3.9 1.5 -2.5 0.8 0.8 1.5 2.6 1.5 4 0 1.6 -0.6 2.6 -1.5 2.6 -1.1 0 -1.5 -1.1 -1.5 -4.1z"/>
  <path d="M453 140.2 l0 -6.2 3.2 0 c2.5 0 2.9 0.3 2 1.2 -0.7 0.7 -1.2 2.6 -1.2 4.3 0 1.9 -0.8 3.9 -2 5 -2 1.8 -2 1.7 -2 -4.3z"/>
  <path d="M50.8 140.9 c-1 -1 -1.8 -2.1 -1.8 -2.4 0 -0.3 -3.1 -4.6 -7 -9.4 -3.8 -4.9 -7 -9.2 -7 -9.5 0 -0.3 1.3 -0.6 2.9 -0.6 3.1 0 4.1 1.4 4.1 6.1 0 2.5 0.4 2.9 2.9 2.9 2.9 0 4.1 1.4 4.1 5.1 0 1.2 0.7 1.9 2 1.9 1.7 0 2 0.7 2 4 0 2.2 -0.1 4 -0.2 3.9 -0.2 0 -1.1 -0.9 -2 -2z"/>
  <path d="M461 126.5 c0 -1.9 0.4 -3.5 0.9 -3.5 0.5 0 1.3 -0.9 1.6 -2 0.3 -1.1 1.5 -2 2.5 -2 1.2 0 1.9 -0.9 2.2 -3 l0.5 -3 -5.4 0 c-3.9 0 -5.3 -0.4 -5.3 -1.4 0 -0.8 1.2 -1.7 2.8 -1.9 5 -1 16.1 -0.7 16.7 0.3 0.4 0.6 -0.6 2.3 -2.2 3.8 -1.5 1.5 -5 5.7 -7.8 9.4 -2.7 3.7 -5.3 6.8 -5.7 6.8 -0.5 0 -0.8 -1.6 -0.8 -3.5z"/>
  <path d="M29.8 113.5 c-2.2 -2.9 -2.3 -5.5 -0.3 -5.5 0.8 0 1.5 -0.7 1.5 -1.5 0 -2.2 1.6 -1.8 3.3 0.8 1.4 2.1 2.1 2.3 7.1 1.9 7.1 -0.6 12.6 0.4 12.6 2.3 0 1.2 -2 1.5 -10.5 1.5 -8.7 0 -10.5 0.3 -10.5 1.5 0 2.2 -1.2 1.8 -3.2 -1z"/>
 </g>
 <g fill="#0d64a0">
  <path d="M324.4 437.6 c-0.9 -2.5 0 -6.1 1.6 -6.1 1 0 1.6 1.2 1.8 3.8 0.2 2.8 0 3.7 -1.3 3.7 -0.8 0 -1.8 -0.6 -2.1 -1.4z"/>
  <path d="M179.9 431.4 c1.2 -1.5 2.1 -4.1 2.1 -6.1 0 -1.9 0.5 -4.3 1.1 -5.4 0.8 -1.6 0.7 -2.6 -0.5 -4.4 -0.9 -1.4 -1.6 -3.3 -1.6 -4.4 0 -1 -0.7 -3.2 -1.5 -4.7 -0.8 -1.6 -1.5 -4 -1.5 -5.3 0 -1.4 -0.7 -3.2 -1.5 -4.2 -1.8 -1.9 -1.2 -6.1 1.1 -8 0.8 -0.6 1.4 -1.6 1.4 -2.2 0 -0.5 0.7 -1.5 1.6 -2.2 1.2 -0.8 1.8 -3.3 2.2 -8.3 0.3 -4.3 1 -7.6 1.8 -8.3 0.8 -0.6 1.4 -2.4 1.4 -4 0 -1.8 0.5 -2.9 1.4 -2.9 1.5 0 2.6 -4.3 2.6 -10.5 0 -2.6 0.6 -4.8 1.5 -5.5 0.8 -0.7 1.5 -2.7 1.5 -4.6 0 -2.3 0.6 -3.7 2 -4.4 1.5 -0.8 2 -2.1 2 -4.9 0 -2.2 0.6 -4.4 1.5 -5.1 0.8 -0.7 1.5 -2.4 1.5 -3.7 0 -1.4 0.9 -3.6 2 -5 1.1 -1.4 2 -3.6 2 -4.8 0 -1.2 0.7 -2.8 1.5 -3.5 0.8 -0.7 1.5 -2.3 1.5 -3.6 0 -1.2 0.5 -2.6 1.1 -2.9 1.3 -0.9 1.5 -0.7 2.3 3.3 0.5 2.8 0.3 3.5 -1.4 3.9 -1.1 0.3 -2 1.4 -2 2.4 0 1 -1.1 4.7 -2.5 8.1 -2.7 7 -5 18.3 -4 19.9 1 1.6 -0.4 5.9 -1.9 5.9 -0.9 0 -1.3 2.2 -1.3 9 0 7.1 0.2 9 1.3 9 1.7 0 3.4 -4 3.4 -8.1 0 -1.7 0.7 -4.4 1.6 -6.1 0.9 -1.7 1.4 -4.3 1.2 -5.9 -0.3 -1.9 0.1 -3 1 -3.4 0.8 -0.3 1.2 -0.8 0.9 -1.2 -0.4 -0.3 0 -1.8 0.7 -3.2 2 -3.9 3.8 -9.2 4.3 -12.7 0.4 -2.5 0.9 -3.1 2.4 -2.7 2.3 0.6 2.7 5.3 0.5 5.3 -2.2 0 -3 1.9 -2.7 6.7 0.1 3.3 -0.2 4.3 -1.4 4.3 -1.7 0 -1.8 1 -1.5 11.8 0.2 6.5 -0.1 7.6 -1.9 8.8 -1.8 1.3 -2.1 2.5 -2.1 9.4 0 7.5 -0.1 7.8 -2.2 7.2 -1.4 -0.3 -1.9 -0.2 -1.4 0.6 0.4 0.7 0.1 1.2 -0.8 1.2 -0.9 0 -1.6 0.5 -1.6 1 0 0.6 0.7 1 1.5 1 2.4 0 1.9 5.7 -0.6 7.1 -1.9 1 -2.1 1.7 -1.6 6 0.5 4.2 0.3 5.3 -1.3 6.7 -1.3 1.1 -2 2.9 -2 5.3 0 2.2 -0.6 3.9 -1.4 4.2 -0.7 0.3 -1.6 2.2 -2 4.1 -0.4 2 -1.1 3.6 -1.5 3.6 -0.5 0 -1.1 2.3 -1.4 5.2 -0.4 3.1 -1.3 5.5 -2.2 6 -0.8 0.5 -1.5 1.6 -1.5 2.3 0 0.8 -0.7 1.5 -1.5 1.5 -0.9 0 -1.8 0.6 -2.1 1.4 -0.3 0.8 -1.2 1.7 -2 2 -1.1 0.4 -0.9 -0.2 0.5 -2z"/>
  <path d="M319.2 426 c-1.2 -2.2 -2.2 -4.9 -2.2 -6.2 0 -1.3 -0.9 -3.1 -2.1 -4.1 -1.2 -1.1 -1.8 -2.5 -1.4 -3.6 0.3 -1 -0.3 -2.9 -1.5 -4.4 -1.1 -1.4 -2 -3.6 -2 -5 0 -1.3 -0.7 -3 -1.5 -3.7 -1 -0.8 -1.5 -3.1 -1.5 -7.1 0 -4.8 -0.4 -6 -2 -6.9 -1.6 -0.9 -2 -2.1 -2 -6.8 -0.1 -3.4 -0.7 -6.5 -1.5 -7.6 -0.8 -1.1 -1.5 -4 -1.5 -6.6 0 -2.6 -0.8 -6.1 -2 -8.3 -2.1 -3.9 -2.7 -11.2 -1 -12.2 0.6 -0.4 1 1.1 1 3.9 0 3.9 1.1 7.1 4.9 14.6 0.5 0.8 2 1.6 3.5 1.8 3.8 0.5 4.4 -2.2 1.6 -7.4 -2 -3.6 -2.2 -4.6 -1.2 -6.9 1.7 -3.6 1.5 -9 -0.3 -10.5 -0.8 -0.7 -1.5 -2.4 -1.5 -3.7 0 -1.4 -0.7 -3.7 -1.4 -5.1 -0.8 -1.5 -2.1 -5.1 -2.9 -7.9 -1.4 -4.9 -1.3 -5.3 0.2 -5.3 2.6 0 4.1 2.1 4.1 5.6 0 1.7 0.7 3.7 1.5 4.4 0.8 0.7 1.5 2.5 1.5 4 0 1.5 0.9 3.5 2 4.5 1.2 1.1 2 3.1 2 5 0 1.8 0.7 3.8 1.5 4.5 0.8 0.7 1.5 2.5 1.5 4 0 1.5 0.9 3.5 2 4.5 1.5 1.3 2 3.1 2 6.9 0 2.9 0.7 5.9 1.5 7 0.8 1.1 1.5 3.2 1.5 4.6 0 1.5 0.9 3.5 1.9 4.4 1.9 1.7 2.5 4.3 3.7 15.7 0.5 4.9 0.3 6.2 -2.4 11.2 -3.8 7.2 -4.9 14.7 -2.9 20.4 1.1 3.2 1.2 4.5 0.3 5.2 -0.8 0.7 -1.8 -0.2 -3.4 -2.9z m-4 -48 c-0.5 -4.4 -0.9 -5 -3.3 -5 -1.5 0 -1.9 0.7 -1.9 3.8 0 4.5 0.6 5.4 3.5 5 1.7 -0.2 1.9 -0.9 1.7 -3.8z"/>
  <path d="M117.3 384.1 c0.4 -2.9 1.7 -3.9 1.7 -1.3 0 1.1 -0.5 2.4 -1 2.7 -0.6 0.4 -0.9 -0.2 -0.7 -1.4z"/>
  <path d="M100 322.6 c0 -0.8 0.5 -1.8 1 -2.1 0.6 -0.3 1 0.3 1 1.4 0 1.2 -0.4 2.1 -1 2.1 -0.5 0 -1 -0.6 -1 -1.4z"/>
  <path d="M403.5 313.3 c0.4 -1 1 -2.8 1.2 -4 0.6 -2.5 2.9 -3.1 3.6 -1 0.6 2 -0.4 4.7 -1.9 4.7 -0.8 0 -1.4 0.5 -1.4 1 0 0.6 -0.5 1 -1.1 1 -0.7 0 -0.8 -0.7 -0.4 -1.7z"/>
  <path d="M97.4 309.5 c-0.3 -1.4 -0.4 -2.8 -0.1 -3.1 1 -1 2.7 0.7 2.7 2.6 0 3 -1.9 3.3 -2.6 0.5z"/>
  <path d="M296.8 306.3 c-1 -0.2 -1.8 -1.1 -1.8 -2 0 -0.8 -0.9 -2.6 -2 -4 -1.1 -1.4 -2 -3.2 -2 -3.9 0 -1.9 3.6 -1.8 4.4 0.1 0.3 0.8 0 1.5 -0.7 1.5 -0.6 0 -0.2 0.7 1 1.5 1.1 0.8 2.3 2.8 2.5 4.5 0.3 1.6 0.4 2.9 0.4 2.9 -0.1 -0.1 -0.9 -0.3 -1.8 -0.6z"/>
  <path d="M210 298.4 c0 -1.2 0.7 -2.5 1.6 -2.8 2.5 -1 2.7 -0.1 0.5 2.5 -2 2.4 -2 2.4 -2.1 0.3z"/>
  <path d="M94 294.6 c0.1 -2.9 0.1 -3 1.5 -1.2 1.9 2.5 1.9 4.3 0 4.3 -1 0 -1.5 -1 -1.5 -3.1z"/>
  <path d="M219 296 c0 -1.8 0.3 -1.9 2 -1 1.1 0.6 2 1.5 2 2 0 0.6 -0.9 1 -2 1 -1.3 0 -2 -0.7 -2 -2z"/>
  <path d="M215 290.1 c0 -2.3 2.6 -7.5 4.5 -9.1 1.9 -1.6 1.9 -1 -0.1 5 -1.6 4.9 -4.4 7.6 -4.4 4.1z"/>
  <path d="M282.3 284.3 c-1.5 -0.3 -2.3 -1.2 -2.3 -2.4 0 -2.7 4.3 -4.3 5.2 -1.9 0.4 1 1.2 2.1 1.8 2.5 0.9 0.6 0.9 1 -0.1 1.6 -0.8 0.5 -1.6 0.8 -1.9 0.7 -0.3 0 -1.5 -0.3 -2.7 -0.5z"/>
  <path d="M412.8 282.9 c-1.9 -1.1 -1.3 -3.9 0.8 -3.9 0.8 0 1.4 1 1.4 2.5 0 2.8 0.1 2.8 -2.2 1.4z"/>
  <path d="M90 276 c0 -3.2 0.4 -4.9 1 -4.5 0.6 0.3 1 2.4 1 4.5 0 2.1 -0.4 4.2 -1 4.5 -0.6 0.4 -1 -1.3 -1 -4.5z"/>
  <path d="M411.4 274.5 c-0.3 -0.8 -0.3 -1.9 0.1 -2.5 1.1 -1.9 3.3 -1 3.7 1.5 0.4 2 0.1 2.5 -1.4 2.5 -1 0 -2.1 -0.7 -2.4 -1.5z"/>
  <path d="M86.4 266.4 c0.3 -0.9 0.6 -2.5 0.6 -3.7 0.1 -2 0.2 -2 1.1 -0.5 0.7 1.2 0.6 2.4 -0.1 3.8 -1.3 2.4 -2.5 2.7 -1.6 0.4z"/>
  <path d="M238 260.5 c0 -0.8 0.5 -1.5 1 -1.5 0.6 0 1 0.7 1 1.5 0 0.8 -0.4 1.5 -1 1.5 -0.5 0 -1 -0.7 -1 -1.5z"/>
  <path d="M86.7 255.3 c-0.5 -1.3 -1.2 -2.3 -1.6 -2.3 -0.5 0 -1.2 -3.7 -1.6 -8.1 -0.7 -9 -1.3 -11.2 -2.6 -10.3 -0.5 0.3 -0.9 -2.1 -0.9 -5.4 0 -4.6 -0.4 -6.3 -2 -7.7 -1.2 -1.1 -2 -3.1 -2 -5.2 0 -1.8 -0.7 -5 -1.5 -7 -0.8 -1.9 -1.5 -4.8 -1.5 -6.4 0 -1.6 -0.7 -3.2 -1.6 -3.7 -1.3 -0.7 -1.7 -2.6 -1.8 -7.7 -0.1 -5.2 -0.6 -6.9 -1.9 -7.6 -0.9 -0.6 -1.7 -2.1 -1.7 -3.4 0 -3.2 -1 -5.6 -2.1 -4.9 -0.5 0.3 -0.9 -1 -0.9 -2.9 0 -2.1 -0.7 -4.1 -2 -5.2 -1.2 -1 -2 -3.1 -2 -4.9 0 -1.7 -0.7 -4 -1.5 -5 -0.8 -1.1 -1.5 -3.1 -1.5 -4.6 0 -1.4 -0.9 -3.3 -2 -4.3 -1.1 -0.9 -2 -2.9 -2 -4.4 0 -2.5 -3.5 -8 -8.3 -13.3 -0.8 -0.8 -2.5 -3.1 -3.8 -4.9 -1.3 -1.9 -3.7 -4.8 -5.3 -6.4 -1.6 -1.7 -3.7 -4.5 -4.7 -6.3 l-1.7 -3.4 2.7 0 c2.2 0 3 0.7 4.1 3.5 1.3 3.4 5 5 5 2.2 0 -0.7 1.3 -2.3 3 -3.5 2.7 -2 4.1 -2.2 17.5 -2.2 8 0 14.5 0.3 14.5 0.8 0 1.7 -6.8 4.5 -10.7 4.4 -2.4 0 -4.3 0.4 -4.3 0.9 0 0.5 0.4 0.9 1 0.9 1.5 0 2.4 4.9 1.3 7.3 -3.4 7.5 -3.7 12.7 -0.7 12.7 1.1 0 1.4 2.2 1.4 10.9 0 8 0.3 11 1.3 11.4 0.7 0.3 1.9 3.5 2.7 7.1 0.7 3.7 2 7.2 2.7 7.8 0.7 0.6 1.3 2.6 1.3 4.4 0 2.9 0.3 3.4 2.4 3.4 3.2 0 4 2.6 1.6 5 -2.4 2.4 -2.5 3.6 -0.5 8.3 0.8 2 1.5 4.8 1.5 6.3 0 1.4 0.9 5.4 1.9 8.8 3.6 11.4 5.1 17.3 5.1 19.9 0 1.4 0.5 2.9 1 3.2 0.6 0.3 1 2.6 1 5.1 0 2.5 0.7 5.9 1.6 7.5 0.8 1.7 1.4 4.8 1.2 7.2 -0.3 3.5 -0.4 3.8 -1.1 2z m-31.7 -129.3 c0 -1.1 -0.4 -2 -1 -2 -0.5 0 -1 0.9 -1 2 0 1.1 0.5 2 1 2 0.6 0 1 -0.9 1 -2z"/>
  <path d="M416 253.6 c0 -0.8 0.4 -2.6 0.9 -4 0.8 -1.8 1.5 -2.3 3 -1.9 1.6 0.4 2.1 1.3 2.1 3.9 0 3.1 -0.3 3.4 -3 3.4 -1.9 0 -3 -0.5 -3 -1.4z"/>
  <path d="M420 238.5 c0 -3.2 1 -4.7 4.2 -5.8 1.1 -0.4 1.5 -0.1 1.3 1.1 -0.2 0.9 -0.4 2.9 -0.4 4.3 -0.1 2 -0.7 2.8 -2.6 3.1 -2.3 0.5 -2.5 0.2 -2.5 -2.7z"/>
  <path d="M423 224.8 c0 -3.1 2.5 -7.8 4.2 -7.8 1.4 0 1.8 0.8 1.8 3.9 0 3.2 -0.4 4 -2.2 4.5 -3.3 0.8 -3.8 0.8 -3.8 -0.6z"/>
  <path d="M427.3 202.5 c0.2 -5.9 0.5 -7.5 1.7 -7.5 1.2 0 1.4 -1.2 1.2 -5.9 -0.3 -5.2 -0.1 -6.1 1.8 -7.1 1.7 -0.9 2.1 -1.9 1.8 -4.7 -0.2 -2.8 0.1 -3.8 1.6 -4.3 1.4 -0.5 2.3 -2.4 3.3 -7 0.7 -3.5 1 -7.4 0.7 -8.6 -0.4 -1.6 0.4 -3.6 3 -6.9 2.8 -3.8 3.4 -5.1 2.5 -6.6 -0.5 -1.1 -1.6 -1.9 -2.5 -1.9 -1.2 0 -1.2 -0.4 -0.4 -2 0.8 -1.5 1.7 -1.8 4 -1.3 2.5 0.5 3 0.2 3 -1.5 0 -1.1 -0.6 -2.2 -1.4 -2.5 -1.5 -0.6 -2.7 -6.5 -1.4 -7.3 0.4 -0.3 0.8 -3.2 0.8 -6.5 0 -5.9 0 -5.9 -2.9 -5.9 -2.9 0 -6.1 -2.2 -6.1 -4.1 0 -0.5 5.5 -0.9 12.5 -0.9 l12.5 0 0 3.5 c0 2.8 0.4 3.5 2 3.5 1.1 0 2 -0.4 2 -1 0 -0.5 1.4 -1 3 -1 l3 0 -1.7 2.7 c-0.9 1.6 -2.4 3.5 -3.2 4.4 -0.9 0.9 -2.3 2.7 -3.1 3.9 -0.8 1.3 -3.2 4.5 -5.2 7.1 -2.3 2.9 -3.8 5.9 -3.8 7.6 0 1.7 -1.4 4.6 -3.5 7.2 -2.1 2.6 -3.5 5.5 -3.5 7.1 0 1.5 -0.7 3.3 -1.5 4 -0.8 0.7 -1.5 2.3 -1.5 3.7 0 1.3 -0.7 3.5 -1.6 4.9 -0.9 1.3 -1.8 3.5 -1.9 4.7 -0.1 1.2 -0.3 2.5 -0.4 2.9 0 0.3 -0.9 0.4 -1.8 0.2 -1.6 -0.5 -1.8 0.2 -1.5 5.4 0.3 5.2 0.1 6 -1.6 6.4 -1.5 0.4 -1.8 1.2 -1.4 3.7 0.3 2 0 3.1 -0.8 3.1 -1.8 0 -4 2.6 -3.1 3.6 0.5 0.5 0.6 3.5 0.4 6.7 -0.5 5.2 -0.8 5.7 -2.9 5.7 -2.2 0 -2.3 -0.3 -2.1 -7.5z"/>
  <path d="M474 111.5 c0 -1.5 0.6 -2.5 1.4 -2.5 2.3 0 2.7 2.9 0.6 4 -1.7 0.9 -2 0.7 -2 -1.5z"/>
 </g>
 <g fill="#0a5288">
  <path d="M184.5 414.1 c-0.6 -4.4 -0.4 -5.6 1.1 -7.1 1.1 -1.1 3 -3.3 4.4 -5 2.8 -3.4 5 -3.9 5 -1 0 1.1 -0.6 2 -1.3 2 -0.7 0 -1.8 0.9 -2.5 2 -0.8 1.3 -0.8 2 -0.2 2 0.6 0 0.9 1.2 0.6 2.8 -0.2 1.5 -0.5 3 -0.5 3.5 -0.1 0.4 -0.8 0.7 -1.6 0.7 -0.8 0 -2.1 1.2 -2.8 2.7 -1.5 2.7 -1.5 2.7 -2.2 -2.6z"/>
  <path d="M316.4 417.2 c-0.6 -0.9 -1.9 -4.3 -2.8 -7.4 -0.9 -3.1 -2.1 -6 -2.6 -6.3 -1.2 -0.7 -1.4 -5.5 -0.2 -5.5 0.4 0 1.6 1.5 2.6 3.3 1 1.7 2.9 4.3 4.1 5.7 1.8 2 2.1 3.4 1.7 7.3 -0.4 5 -1.1 5.7 -2.8 2.9z"/>
  <path d="M180.2 396 c-0.7 -1.2 -1.7 -1.8 -2.2 -1.5 -1.8 1.1 -2.3 -2.5 -0.6 -4.4 0.9 -1 1.6 -3.2 1.6 -4.9 0 -2.1 0.7 -3.5 2 -4.2 1.6 -0.9 2 -2.1 2 -6.2 0 -3.4 0.6 -5.8 1.7 -7 1 -1.1 1.6 -3.2 1.5 -5 -0.2 -2.1 0.4 -3.5 1.8 -4.5 1.1 -0.8 2 -2.5 2 -3.9 0 -1.3 0.5 -2.4 1 -2.4 0.6 0 1 2.6 1 5.8 0 5.1 -0.5 6.5 -3.5 10.8 -3.1 4.4 -3.5 5.6 -3.5 11.4 0 4.4 -0.5 7.3 -1.6 8.8 -1.5 2.1 -1.5 2.5 0.1 4.2 1.9 2.1 1.4 5 -0.7 5 -0.7 0 -1.9 -0.9 -2.6 -2z"/>
  <path d="M323.1 391.8 c-0.5 -1.3 -1.2 -4.3 -1.6 -6.8 -0.4 -2.5 -1.4 -5.2 -2.2 -6.2 -2 -2.2 -1.3 -7.2 1.1 -7.6 1.5 -0.3 1.8 0.1 1.4 2.1 -0.4 1.9 0.1 2.8 1.9 3.6 2.7 1.2 3.1 4.7 0.6 5.4 -1.7 0.4 -1.7 0.5 0 0.6 1.3 0.1 1.7 0.6 1.2 2 -0.3 1 -0.2 2.9 0.3 4.2 1 2.6 0.6 4.9 -0.9 4.9 -0.5 0 -1.3 -1 -1.8 -2.2z"/>
  <path d="M195 391 c0 -1.1 0.7 -2 1.5 -2 0.8 0 1.5 0.9 1.5 2 0 1.1 -0.7 2 -1.5 2 -0.8 0 -1.5 -0.9 -1.5 -2z"/>
  <path d="M304.3 383.4 c-0.7 -0.7 -1.3 -1.8 -1.3 -2.4 0 -1.5 2.6 -1.2 3.9 0.4 1.6 2 -0.9 3.9 -2.6 2z"/>
  <path d="M311.2 350.3 c0.4 -3.7 3.8 -4.5 3.8 -1 0 2.1 -1.6 3.7 -3.6 3.7 -0.3 0 -0.4 -1.2 -0.2 -2.7z"/>
  <path d="M197 329.6 c0 -0.8 0.5 -1.8 1 -2.1 0.6 -0.3 1 0.3 1 1.4 0 1.2 -0.4 2.1 -1 2.1 -0.5 0 -1 -0.6 -1 -1.4z"/>
  <path d="M263.3 262.3 c-2.3 -0.8 -1.4 -3.3 1.2 -3.3 1.5 0 2.5 0.6 2.5 1.4 0 1.6 -1.9 2.5 -3.7 1.9z"/>
  <path d="M62.6 168.5 c-0.4 -1.4 -1.1 -2.3 -1.6 -2 -1.2 0.7 -2.3 -1.3 -1.6 -3.1 0.4 -1.1 1 -1.2 2.5 -0.5 2.2 1.2 3.7 5.9 2.3 7.3 -0.6 0.6 -1.2 -0.1 -1.6 -1.7z"/>
  <path d="M57.6 153.7 c-1 -2.1 -1.6 -4 -1.3 -4.3 0.9 -1 3.9 4.4 3.5 6.3 -0.3 1.3 -0.9 0.8 -2.2 -2z"/>
  <path d="M52.1 144.8 c0 -1.2 0.4 -3.2 0.9 -4.3 0.7 -1.8 0.9 -1.8 1.5 -0.3 0.9 2.3 0.2 6.1 -1.2 6.6 -0.8 0.2 -1.3 -0.5 -1.2 -2z"/>
  <path d="M451.7 140.1 c-0.6 -2.3 1 -5.1 2.8 -5.1 1 0 1.5 1.1 1.5 3.5 0 2.8 -0.4 3.5 -1.9 3.5 -1 0 -2.1 -0.8 -2.4 -1.9z"/>
  <path d="M47 133 c-0.6 -1.1 -1.8 -2 -2.6 -2 -0.8 0 -2 -1.3 -2.5 -3 -0.6 -1.6 -1.5 -2.8 -1.9 -2.5 -0.5 0.3 -1.2 -0.4 -1.5 -1.5 -0.4 -1.2 -2.2 -3.5 -4.1 -5.2 -1.9 -1.7 -3.4 -3.7 -3.4 -4.3 0 -0.7 -0.7 -1.8 -1.5 -2.5 -0.8 -0.7 -1.5 -2.5 -1.5 -4.1 0 -2.4 0.4 -2.9 2.5 -2.9 1.8 0 2.8 0.7 3.5 2.5 0.9 2.4 1.4 2.5 8.5 2.5 4.1 0 7.5 0.4 7.5 1 0 0.5 -1.6 2.2 -3.5 3.7 -4 3.2 -4.6 7 -1.5 9.8 1.1 1 2 2.3 2 2.8 0 0.6 0.9 2.1 2.1 3.3 1.2 1.2 1.8 2.7 1.4 3.3 -1 1.7 -2.3 1.3 -3.5 -0.9z"/>
  <path d="M455.5 129.1 c-0.6 -2.1 0.2 -4.9 2.3 -7.3 0.9 -1 1.4 -3.6 1.4 -6.3 -0.1 -5.3 -0.4 -5.1 10.1 -6 9.1 -0.7 10 0.5 4.2 5.6 -1.9 1.7 -3.5 3.7 -3.5 4.4 0 0.8 -0.7 1.1 -1.9 0.8 -2.2 -0.6 -5.4 2.4 -4.7 4.3 0.3 0.8 -0.1 1.4 -0.9 1.4 -0.8 0 -1.9 0.8 -2.4 1.9 -1.5 2.7 -3.9 3.3 -4.6 1.2z"/>
 </g>
</svg>